<?xml version="1.0" encoding="utf-8"?>
<!-- Generator: Adobe Illustrator 26.0.3, SVG Export Plug-In . SVG Version: 6.00 Build 0)  -->
<svg version="1.1" id="Ebene_1" xmlns="http://www.w3.org/2000/svg" xmlns:xlink="http://www.w3.org/1999/xlink" x="0px" y="0px"
     viewBox="0 0 427.16 421.83" style="enable-background:new 0 0 427.16 421.83;" xml:space="preserve">
<style type="text/css">
	.st0{fill:#FDC300;stroke:#0E2A4E;stroke-width:10;stroke-miterlimit:10;}
	.st1{fill:#0E2A4E;}
	.st2{fill:#FDC300;}
	.st3{fill:#FDC300;stroke:#003DA5;stroke-width:10;stroke-miterlimit:10;}
	.st4{fill:#003DA5;}
	.st5{fill:#2B65AC;}
	.st6{fill:#50B078;}
	.st7{fill:#FFFFFF;}
	.st8{fill:#FFFFFF;stroke:#2B65AC;stroke-width:10;stroke-miterlimit:10;}
</style>
    <g>
	<path class="st7" d="M59.44,252.85l2.07-0.54c0.79-0.21,1.32-0.48,1.6-0.83c0.28-0.35,0.34-0.82,0.19-1.4
		c-0.15-0.56-0.43-0.92-0.86-1.1c-0.43-0.17-1.02-0.16-1.79,0.04l-2.07,0.54c-0.81,0.21-1.37,0.5-1.66,0.86
		c-0.3,0.36-0.37,0.82-0.23,1.38c0.15,0.58,0.44,0.96,0.86,1.12C57.98,253.1,58.6,253.07,59.44,252.85z"/>
        <path class="st7" d="M65.23,269.94c-0.31-0.14-0.67-0.12-1.07,0.04c-0.37,0.15-0.62,0.39-0.75,0.71c-0.13,0.32-0.11,0.68,0.05,1.08
		l0.67,1.65l2.48-1.01l-0.67-1.65C65.77,270.35,65.54,270.08,65.23,269.94z"/>
        <polygon class="st7" points="68.04,279.76 71.98,279.2 70.95,277.04 	"/>
        <path class="st7" d="M80.17,130.13c-0.18-0.43-0.61-0.85-1.3-1.27l-1.64-0.98c-0.72-0.43-1.32-0.62-1.78-0.58
		c-0.47,0.05-0.85,0.31-1.14,0.81l-0.81,1.37l5.7,3.39L80,131.5C80.29,131.02,80.34,130.56,80.17,130.13z"/>
        <polygon class="st7" points="79.65,121.48 82.15,124.58 83.48,122.59 	"/>
        <path class="st7" d="M75.72,283.74c-0.46-0.07-1.05,0.08-1.75,0.47l-1.68,0.91c-0.74,0.4-1.21,0.81-1.41,1.24
		c-0.2,0.42-0.16,0.89,0.11,1.39l0.76,1.4l5.83-3.15l-0.76-1.4C76.55,284.1,76.19,283.82,75.72,283.74z"/>
        <path class="st7" d="M235.6,368.49c-0.44,0.06-0.78,0.23-1,0.5c-0.22,0.27-0.3,0.63-0.24,1.06c0.07,0.47,0.24,0.82,0.53,1.03
		c0.29,0.21,0.66,0.29,1.11,0.23l1.72-0.24l-0.4-2.82L235.6,368.49z"/>
        <path class="st7" d="M163.89,362.62c-0.3,0.15-0.52,0.43-0.65,0.85c-0.12,0.38-0.1,0.72,0.06,1.03c0.16,0.3,0.45,0.52,0.86,0.65
		l1.69,0.54l0.81-2.56l-1.69-0.54C164.56,362.47,164.2,362.47,163.89,362.62z"/>
        <path class="st7" d="M181.23,363.41c-0.35,0.31-0.6,0.86-0.76,1.64l-0.38,1.87c-0.17,0.83-0.15,1.45,0.05,1.87
		c0.2,0.42,0.58,0.69,1.14,0.81l1.56,0.32l1.31-6.49l-1.56-0.31C182.03,363,181.58,363.1,181.23,363.41z"/>
        <path class="st7" d="M189.54,364.92c-0.33,0.33-0.56,0.89-0.67,1.68l-0.28,1.89c-0.12,0.83-0.07,1.46,0.15,1.87
		c0.22,0.41,0.61,0.66,1.18,0.75l1.58,0.23l0.96-6.55l-1.57-0.23C190.31,364.47,189.87,364.6,189.54,364.92z"/>
        <path class="st7" d="M79.88,291.09c-0.46-0.05-1.04,0.14-1.73,0.56l-1.63,1c-0.72,0.44-1.17,0.88-1.34,1.31
		c-0.18,0.43-0.12,0.9,0.18,1.38l0.83,1.36l5.65-3.46l-0.83-1.36C80.72,291.4,80.34,291.14,79.88,291.09z"/>
        <polygon class="st7" points="173.23,366.76 175.33,363.38 173.01,362.78 	"/>
        <path class="st7" d="M105.64,328.29c-0.35,0-0.67,0.17-0.97,0.5c-0.32,0.36-0.47,0.71-0.45,1.07c0.02,0.36,0.2,0.69,0.54,1
		l1.29,1.16l1.91-2.12l-1.29-1.16C106.33,328.43,105.99,328.28,105.64,328.29z"/>
        <path class="st7" d="M86.65,114.02c-0.04-0.33-0.24-0.63-0.59-0.9c-0.32-0.24-0.65-0.33-0.99-0.28c-0.34,0.06-0.64,0.25-0.9,0.6
		l-1.07,1.42l2.14,1.61l1.07-1.42C86.57,114.7,86.69,114.36,86.65,114.02z"/>
        <path class="st7" d="M147.42,351.39c-0.52-0.24-0.98-0.26-1.39-0.04c-0.41,0.21-0.78,0.68-1.12,1.4l-0.91,1.93
		c-0.36,0.76-0.49,1.37-0.4,1.83c0.09,0.46,0.39,0.81,0.91,1.06c0.54,0.26,1.02,0.28,1.42,0.06c0.4-0.22,0.78-0.72,1.15-1.5
		l0.91-1.93c0.35-0.74,0.48-1.32,0.39-1.76C148.28,351.99,147.97,351.65,147.42,351.39z"/>
        <path class="st7" d="M56.44,178.12c-0.47-0.09-0.85-0.04-1.15,0.16c-0.3,0.2-0.49,0.52-0.58,0.97l-0.33,1.7l2.8,0.55l0.33-1.7
		c0.09-0.44,0.04-0.81-0.15-1.11C57.18,178.39,56.87,178.2,56.44,178.12z"/>
        <path class="st7" d="M309.08,88.33c0.44,0.35,0.89,0.46,1.34,0.34c0.45-0.12,0.92-0.5,1.42-1.13l1.17-1.5
		c0.52-0.66,0.78-1.23,0.8-1.7c0.01-0.47-0.21-0.88-0.66-1.23l-1.25-0.98l-4.08,5.22L309.08,88.33z"/>
        <path class="st7" d="M331.59,103.35c0.34,0.02,0.67-0.12,0.99-0.42c0.29-0.27,0.45-0.58,0.45-0.92c0.01-0.35-0.14-0.68-0.43-0.99
		l-1.21-1.31l-1.97,1.82l1.21,1.31C330.93,103.16,331.25,103.33,331.59,103.35z"/>
        <path class="st7" d="M315.57,93.68c0.42,0.37,0.87,0.51,1.32,0.41c0.46-0.1,0.95-0.45,1.48-1.05l1.25-1.44
		c0.55-0.63,0.85-1.18,0.89-1.65c0.04-0.47-0.16-0.89-0.59-1.26l-1.2-1.05l-4.36,4.99L315.57,93.68z"/>
        <polygon class="st7" points="325.49,95.12 321.99,97.03 323.71,98.69 	"/>
        <path class="st7" d="M340.06,119.86c-0.14,0.43-0.03,0.88,0.32,1.37c0.33,0.47,0.73,0.71,1.19,0.72c0.46,0.01,1.01-0.21,1.66-0.67
		l1.74-1.24c0.69-0.49,1.1-0.95,1.25-1.4c0.15-0.44,0.06-0.9-0.28-1.37c-0.35-0.49-0.75-0.74-1.21-0.75c-0.45,0-1.03,0.24-1.74,0.74
		l-1.74,1.24C340.6,118.99,340.2,119.44,340.06,119.86z"/>
        <path class="st7" d="M369.46,206.94c0.38,0.27,0.98,0.39,1.78,0.37l1.91-0.06c0.84-0.03,1.45-0.19,1.82-0.47
		c0.37-0.29,0.54-0.72,0.52-1.29l-0.05-1.59l-6.63,0.21l0.05,1.59C368.87,206.25,369.08,206.67,369.46,206.94z"/>
        <path class="st7" d="M365.39,161.87c0.31,0.17,0.67,0.19,1.09,0.05c0.45-0.15,0.76-0.39,0.92-0.71c0.16-0.32,0.17-0.7,0.02-1.13
		l-0.55-1.65l-2.71,0.9l0.55,1.65C364.86,161.41,365.09,161.71,365.39,161.87z"/>
        <path class="st7" d="M98.32,100.31l1.52,1.5c0.58,0.57,1.09,0.88,1.53,0.94c0.44,0.06,0.88-0.13,1.3-0.55
		c0.4-0.41,0.57-0.84,0.5-1.3c-0.07-0.46-0.39-0.96-0.95-1.52l-1.53-1.5c-0.6-0.59-1.13-0.92-1.6-0.98c-0.46-0.06-0.9,0.11-1.3,0.51
		c-0.42,0.43-0.59,0.87-0.52,1.32C97.36,99.18,97.7,99.71,98.32,100.31z"/>
        <path class="st7" d="M273.22,62.92c0.33-0.13,0.57-0.4,0.73-0.81c0.17-0.45,0.19-0.83,0.05-1.16c-0.14-0.33-0.43-0.58-0.86-0.74
		l-1.61-0.63l-1.04,2.65l1.62,0.63C272.52,63.03,272.89,63.04,273.22,62.92z"/>
        <path class="st7" d="M180.67,59.01c0.55-0.12,0.93-0.39,1.12-0.82c0.2-0.42,0.21-1.03,0.04-1.81l-0.4-1.86
		c-0.18-0.82-0.44-1.39-0.79-1.7c-0.35-0.31-0.81-0.41-1.37-0.28l-1.56,0.34l1.4,6.48L180.67,59.01z"/>
        <path class="st7" d="M138.21,70.31c0.11-0.33,0.06-0.69-0.15-1.08c-0.23-0.42-0.52-0.68-0.86-0.78c-0.34-0.1-0.72-0.04-1.12,0.18
		l-1.52,0.84l1.37,2.5l1.52-0.83C137.85,70.92,138.1,70.64,138.21,70.31z"/>
        <path class="st7" d="M188.95,57.45c0.56-0.09,0.95-0.34,1.17-0.75c0.22-0.41,0.27-1.01,0.14-1.81l-0.3-1.88
		c-0.13-0.83-0.37-1.41-0.7-1.74c-0.33-0.33-0.78-0.45-1.35-0.36l-1.57,0.25l1.05,6.55L188.95,57.45z"/>
        <path class="st7" d="M225.94,56.09c0.57,0.04,1.01-0.12,1.31-0.47c0.3-0.35,0.48-0.92,0.53-1.71l0.14-2.13
		c0.06-0.84-0.04-1.46-0.29-1.85c-0.25-0.4-0.66-0.61-1.24-0.65c-0.6-0.04-1.05,0.11-1.34,0.46c-0.29,0.35-0.47,0.95-0.52,1.81
		l-0.14,2.13c-0.05,0.81,0.04,1.4,0.28,1.78C224.92,55.84,225.34,56.05,225.94,56.09z"/>
        <polygon class="st7" points="196.43,50.77 195.65,54.67 198.03,54.42 	"/>
        <path class="st7" d="M205.6,51.77c0.44-0.02,0.77-0.16,1.01-0.4c0.23-0.25,0.34-0.59,0.31-1.03c-0.02-0.4-0.16-0.71-0.42-0.94
		c-0.26-0.23-0.6-0.33-1.03-0.31l-1.77,0.09l0.14,2.68L205.6,51.77z"/>
        <path class="st7" d="M75.98,137.49c-0.2-0.42-0.66-0.82-1.37-1.19l-1.69-0.88c-0.75-0.39-1.35-0.55-1.81-0.48
		c-0.46,0.07-0.83,0.36-1.09,0.87l-0.74,1.41l5.87,3.07l0.74-1.41C76.14,138.37,76.18,137.91,75.98,137.49z"/>
        <path class="st7" d="M335,89.46c-33.47-33.47-77.44-50.21-121.41-50.21S125.64,55.98,92.17,89.46
		c-32.43,32.43-50.29,75.55-50.29,121.41c0,45.86,17.86,88.98,50.29,121.41c32.43,32.43,75.55,50.29,121.41,50.29
		s88.98-17.86,121.41-50.29c32.43-32.43,50.29-75.55,50.29-121.41C385.29,165.01,367.43,121.89,335,89.46z M377.12,205.44
		c0.04,1.1-0.24,1.98-0.83,2.63c-0.59,0.66-1.58,1-2.98,1.05l-2.02,0.06c-1.4,0.04-2.41-0.25-3.05-0.88
		c-0.64-0.63-0.97-1.5-1.01-2.61l-0.11-3.43l9.89-0.32L377.12,205.44z M376.9,200.2l-1.63,0.14l-0.37-4.39l-2.44,0.21l0.32,3.75
		l-1.63,0.14l-0.32-3.75l-2.53,0.21l0.37,4.39l-1.63,0.14l-0.53-6.26l9.86-0.84L376.9,200.2z M375.45,186.77l-4.03,0.56l0.45,3.25
		l4.03-0.56l0.26,1.86l-9.8,1.35l-0.26-1.86l4.15-0.57l-0.45-3.25l-4.15,0.57l-0.26-1.86l9.8-1.35L375.45,186.77z M374.35,179.58
		c0.21,1.06,0.09,1.96-0.35,2.7c-0.44,0.74-1.17,1.21-2.19,1.4l-0.1,0.02l-0.36-1.84l0.08-0.02c0.5-0.1,0.86-0.32,1.1-0.66
		c0.23-0.34,0.3-0.78,0.2-1.3c-0.12-0.59-0.38-0.98-0.8-1.18c-0.42-0.2-1.05-0.21-1.88-0.05l-2.1,0.41
		c-0.79,0.15-1.33,0.4-1.64,0.75c-0.3,0.35-0.4,0.81-0.28,1.41c0.1,0.53,0.32,0.9,0.66,1.12c0.34,0.22,0.75,0.29,1.23,0.19
		l0.11-0.02l0.35,1.81l-0.1,0.02c-1.04,0.2-1.9,0.05-2.58-0.46c-0.68-0.51-1.12-1.31-1.33-2.38c-0.46-2.35,0.6-3.78,3.18-4.28
		l2.22-0.43C372.37,176.27,373.89,177.21,374.35,179.58z M371.51,167.45c0.29,1.04,0.24,1.95-0.14,2.72
		c-0.38,0.77-1.08,1.29-2.08,1.57l-0.1,0.03l-0.5-1.81l0.08-0.02c0.49-0.14,0.84-0.38,1.05-0.74c0.21-0.36,0.24-0.8,0.1-1.31
		c-0.16-0.58-0.46-0.95-0.89-1.12c-0.43-0.16-1.06-0.13-1.88,0.09l-2.06,0.57c-0.77,0.21-1.3,0.5-1.57,0.87
		c-0.28,0.37-0.33,0.84-0.17,1.42c0.14,0.51,0.39,0.87,0.74,1.07c0.35,0.2,0.77,0.23,1.25,0.1l0.11-0.03l0.49,1.78l-0.1,0.03
		c-1.02,0.28-1.89,0.19-2.61-0.26c-0.72-0.46-1.22-1.22-1.51-2.28c-0.64-2.31,0.31-3.82,2.84-4.52l2.18-0.6
		C369.28,164.31,370.87,165.12,371.51,167.45z M369,159.64c0.32,0.95,0.3,1.79-0.04,2.51c-0.34,0.72-0.97,1.24-1.89,1.54
		c-0.87,0.29-1.66,0.25-2.36-0.13c-0.7-0.38-1.22-1.04-1.53-1.99l-0.58-1.73l-3.56,1.19l-0.59-1.78l9.39-3.13L369,159.64z
		 M358.96,149.98l2.11-0.83c2.45-0.96,4.11-0.32,5,1.93c0.39,1,0.44,1.91,0.14,2.72c-0.3,0.81-0.93,1.4-1.9,1.78l-0.09,0.04
		l-0.69-1.75l0.08-0.03c0.47-0.18,0.79-0.47,0.96-0.85c0.17-0.38,0.16-0.82-0.04-1.32c-0.22-0.56-0.55-0.9-1-1.02
		c-0.45-0.12-1.07-0.02-1.86,0.29l-1.99,0.78c-0.75,0.29-1.24,0.64-1.47,1.03c-0.23,0.4-0.24,0.87-0.02,1.43
		c0.2,0.5,0.48,0.83,0.85,0.98c0.37,0.16,0.79,0.15,1.25-0.04l0.11-0.04l0.68,1.72l-0.09,0.04c-0.99,0.39-1.86,0.39-2.62,0.01
		c-0.76-0.38-1.34-1.08-1.74-2.1C355.73,152.54,356.51,150.95,358.96,149.98z M353.35,125.78l-3.46,6.3l5.32-3.17l0.96,1.61
		l-8.5,5.06l-0.96-1.61l3.45-6.29l-5.31,3.16l-0.96-1.61l8.5-5.06L353.35,125.78z M351.23,122.42l-8.29,5.41l-1.03-1.57l8.29-5.41
		L351.23,122.42z M347.29,116.34c0.64,0.9,0.89,1.79,0.75,2.66c-0.13,0.88-0.77,1.72-1.91,2.53l-1.85,1.31
		c-1.14,0.81-2.15,1.12-3.03,0.94c-0.88-0.18-1.64-0.72-2.28-1.62c-1.37-1.93-0.98-3.65,1.17-5.17l1.85-1.31
		C344.14,114.16,345.9,114.38,347.29,116.34z M336.55,108.75c2.06-1.63,3.84-1.5,5.34,0.39c0.67,0.85,0.98,1.7,0.93,2.56
		c-0.05,0.86-0.48,1.61-1.3,2.26l-0.08,0.06l-1.17-1.47l0.07-0.05c0.4-0.31,0.62-0.68,0.67-1.09c0.05-0.41-0.09-0.83-0.42-1.25
		c-0.37-0.47-0.79-0.7-1.25-0.68c-0.46,0.02-1.03,0.29-1.69,0.82l-1.67,1.33c-0.63,0.5-1,0.97-1.11,1.42
		c-0.11,0.45,0.02,0.9,0.4,1.38c0.33,0.42,0.7,0.65,1.1,0.69c0.4,0.04,0.79-0.09,1.18-0.4l0.09-0.07l1.15,1.45l-0.08,0.06
		c-0.83,0.66-1.67,0.92-2.5,0.78c-0.84-0.14-1.6-0.64-2.28-1.5c-1.49-1.88-1.21-3.64,0.85-5.27L336.55,108.75z M333.87,99.98
		c0.66,0.71,0.98,1.45,0.98,2.24c0,0.78-0.33,1.48-1,2.1c-0.48,0.44-0.98,0.7-1.52,0.79c-0.53,0.08-1.07-0.01-1.61-0.28l-1.7,4.5
		l-1.47-1.59l1.67-4.1l-0.95-1.03l-2.95,2.73l-1.28-1.38l7.27-6.72L333.87,99.98z M327.86,93.79l-4.34,9.56l-1.43-1.39l0.9-1.8
		l-2.44-2.36l-1.77,0.96l-1.42-1.38l9.4-4.67L327.86,93.79z M321.01,87.47c0.83,0.72,1.28,1.52,1.36,2.4
		c0.08,0.88-0.34,1.84-1.26,2.9l-1.33,1.52c-0.92,1.05-1.82,1.6-2.72,1.63c-0.9,0.04-1.76-0.31-2.6-1.04l-2.58-2.25l6.5-7.45
		L321.01,87.47z M314.18,81.83c0.87,0.68,1.36,1.45,1.49,2.33c0.12,0.87-0.24,1.86-1.1,2.96l-1.24,1.59
		c-0.86,1.1-1.73,1.69-2.63,1.78c-0.89,0.09-1.77-0.21-2.65-0.89l-2.7-2.11l6.09-7.8L314.18,81.83z M310.03,78.64l-0.94,1.34
		l-3.61-2.52l-1.41,2.01l3.08,2.15l-0.94,1.34l-3.08-2.15l-1.46,2.08l3.61,2.52l-0.94,1.34l-5.15-3.6l5.67-8.11L310.03,78.64z
		 M298.76,71.13l-2.16,3.46l2.79,1.74l2.16-3.46l1.59,0.99l-5.24,8.4l-1.59-1l2.22-3.55l-2.79-1.74l-2.22,3.55l-1.59-1l5.24-8.4
		L298.76,71.13z M286.38,71.07l1.09-1.99c1.27-2.3,2.96-2.87,5.08-1.7c0.95,0.52,1.56,1.19,1.85,2c0.28,0.81,0.17,1.67-0.33,2.59
		l-0.05,0.09l-1.65-0.91l0.04-0.08c0.24-0.44,0.31-0.86,0.2-1.27c-0.11-0.4-0.4-0.73-0.87-0.99c-0.53-0.29-1-0.34-1.42-0.14
		c-0.42,0.2-0.83,0.67-1.24,1.41l-1.03,1.87c-0.39,0.7-0.54,1.28-0.47,1.74c0.07,0.46,0.37,0.83,0.9,1.12
		c0.47,0.26,0.9,0.33,1.28,0.22c0.39-0.12,0.7-0.39,0.94-0.83l0.06-0.1l1.62,0.89l-0.05,0.09c-0.51,0.93-1.18,1.49-2.01,1.69
		c-0.83,0.19-1.72,0.02-2.69-0.51C285.53,75.1,285.11,73.37,286.38,71.07z M281.42,61.79c0.98,0.45,1.65,1.07,1.99,1.85
		c0.35,0.79,0.3,1.66-0.13,2.6l-0.04,0.09l-1.71-0.78l0.04-0.08c0.21-0.46,0.24-0.89,0.1-1.28c-0.14-0.39-0.46-0.7-0.95-0.92
		c-0.55-0.25-1.02-0.26-1.43-0.03c-0.4,0.23-0.78,0.73-1.13,1.5l-0.88,1.95c-0.33,0.73-0.45,1.32-0.34,1.77
		c0.11,0.45,0.43,0.79,0.98,1.04c0.49,0.22,0.92,0.26,1.29,0.12c0.38-0.14,0.67-0.44,0.87-0.9l0.05-0.1l1.68,0.77l-0.04,0.09
		c-0.44,0.97-1.06,1.58-1.87,1.83c-0.81,0.26-1.72,0.16-2.72-0.3c-2.19-0.99-2.73-2.69-1.64-5.08l0.94-2.06
		C277.58,61.48,279.22,60.79,281.42,61.79z M273.81,58.72c0.93,0.37,1.57,0.91,1.91,1.64c0.34,0.73,0.33,1.54-0.02,2.44
		c-0.33,0.85-0.87,1.43-1.61,1.73c-0.74,0.3-1.58,0.27-2.51-0.1l-1.7-0.66l-1.37,3.5l-1.75-0.69l3.61-9.21L273.81,58.72z
		 M259.95,60.23l0.71-2.15c0.83-2.5,2.39-3.36,4.68-2.6c1.03,0.34,1.75,0.88,2.18,1.63c0.43,0.75,0.48,1.61,0.15,2.6l-0.03,0.1
		l-1.78-0.59l0.03-0.08c0.16-0.48,0.15-0.91-0.04-1.28c-0.18-0.37-0.53-0.64-1.04-0.81c-0.57-0.19-1.05-0.15-1.42,0.12
		c-0.38,0.27-0.7,0.8-0.97,1.61l-0.67,2.03c-0.25,0.76-0.3,1.36-0.15,1.79c0.15,0.43,0.52,0.75,1.09,0.93
		c0.51,0.17,0.94,0.16,1.3-0.02c0.36-0.18,0.61-0.51,0.77-0.98l0.04-0.11l1.76,0.58l-0.03,0.1c-0.33,1.01-0.89,1.68-1.67,2.02
		c-0.78,0.34-1.69,0.34-2.73-0.01C259.84,64.35,259.12,62.73,259.95,60.23z M235.92,48.75l1.85,0.3l2.62,6.69l0.98-6.12l1.85,0.29
		l-1.56,9.77l-1.85-0.3l-2.62-6.68l-0.98,6.1l-1.85-0.3L235.92,48.75z M231.97,48.3l1.87,0.22l-1.17,9.82l-1.87-0.22L231.97,48.3z
		 M222.5,53.59l0.15-2.26c0.18-2.62,1.46-3.86,3.86-3.69c1.1,0.07,1.94,0.44,2.54,1.1c0.6,0.66,0.85,1.68,0.76,3.08l-0.15,2.26
		c-0.09,1.39-0.49,2.37-1.18,2.95c-0.7,0.57-1.6,0.82-2.7,0.75C223.42,57.6,222.33,56.21,222.5,53.59z M213.95,51.02
		c0.07-2.63,1.31-3.91,3.73-3.85c1.08,0.03,1.93,0.33,2.56,0.92c0.63,0.59,0.92,1.41,0.9,2.45l0,0.1l-1.88-0.05l0-0.09
		c0.01-0.51-0.12-0.91-0.41-1.21c-0.28-0.3-0.69-0.46-1.23-0.48c-0.6-0.01-1.04,0.16-1.33,0.53c-0.28,0.37-0.43,0.97-0.46,1.82
		l-0.05,2.13c-0.02,0.8,0.11,1.39,0.38,1.76c0.27,0.37,0.71,0.56,1.31,0.58c0.54,0.01,0.95-0.12,1.24-0.4
		c0.29-0.28,0.44-0.67,0.45-1.17l0-0.11l1.85,0.05l0,0.1c-0.03,1.06-0.36,1.87-1.01,2.42c-0.65,0.55-1.52,0.82-2.62,0.79
		c-2.4-0.06-3.56-1.4-3.5-4.03L213.95,51.02z M315.59,108.86c56.34,56.34,56.34,147.68,0,204.02c-56.34,56.34-147.68,56.34-204.02,0
		c-56.34-56.34-56.34-147.68,0-204.02C167.91,52.52,259.25,52.52,315.59,108.86z M205.48,47.45c0.96-0.05,1.75,0.18,2.35,0.68
		c0.6,0.5,0.92,1.2,0.97,2.11c0.03,0.65-0.09,1.21-0.37,1.67c-0.28,0.46-0.69,0.81-1.25,1.05l2.36,4.19l-2.16,0.11l-2.08-3.91
		l-1.4,0.07l0.2,4.01l-1.88,0.09l-0.5-9.88L205.48,47.45z M195.4,48.25l1.53-0.16l4.55,9.47l-1.98,0.21l-0.8-1.85l-3.38,0.36
		l-0.4,1.97l-1.97,0.21L195.4,48.25z M187.66,49.29c1.09-0.17,1.99-0.01,2.72,0.5c0.73,0.5,1.2,1.45,1.42,2.82l0.32,2
		c0.22,1.38,0.06,2.42-0.49,3.14c-0.55,0.71-1.37,1.15-2.46,1.33l-3.39,0.54l-1.56-9.78L187.66,49.29z M178.94,50.93
		c1.07-0.23,1.99-0.12,2.74,0.35c0.75,0.46,1.27,1.38,1.57,2.74l0.43,1.98c0.29,1.36,0.19,2.42-0.32,3.16
		c-0.5,0.74-1.3,1.23-2.38,1.46l-3.35,0.72l-2.09-9.67L178.94,50.93z M173.84,52.09l0.43,1.58l-4.25,1.16l0.64,2.37l3.62-0.99
		l0.43,1.58l-3.62,0.99l0.67,2.45l4.25-1.16l0.43,1.58l-6.06,1.65l-2.6-9.54L173.84,52.09z M160.87,55.94l1.27,3.87l3.12-1.03
		l-1.27-3.87l1.78-0.59l3.1,9.4l-1.78,0.59l-1.31-3.98l-3.12,1.03l1.31,3.98l-1.78,0.59l-3.1-9.4L160.87,55.94z M154,58.31
		c1.01-0.39,1.91-0.44,2.72-0.14c0.81,0.3,1.4,0.94,1.78,1.91l0.04,0.09l-1.75,0.69l-0.03-0.08c-0.19-0.47-0.47-0.79-0.85-0.96
		c-0.38-0.17-0.82-0.16-1.32,0.04c-0.56,0.22-0.9,0.55-1.02,1c-0.12,0.45-0.02,1.07,0.29,1.86l0.78,1.99
		c0.29,0.75,0.64,1.24,1.03,1.47c0.4,0.24,0.87,0.24,1.43,0.02c0.5-0.19,0.83-0.48,0.98-0.85c0.16-0.37,0.15-0.79-0.03-1.25
		l-0.04-0.11l1.72-0.67l0.04,0.09c0.39,0.99,0.39,1.86,0.01,2.62c-0.38,0.76-1.08,1.34-2.11,1.74c-2.23,0.88-3.83,0.09-4.79-2.36
		l-0.83-2.11C151.1,60.86,151.75,59.19,154,58.31z M142.57,63.29c0.97-0.47,1.87-0.58,2.7-0.35c0.83,0.24,1.47,0.83,1.92,1.77
		l0.04,0.09l-1.69,0.82l-0.04-0.08c-0.22-0.46-0.53-0.75-0.92-0.9c-0.39-0.14-0.83-0.09-1.31,0.14c-0.54,0.26-0.86,0.62-0.94,1.07
		c-0.08,0.45,0.06,1.06,0.43,1.83l0.93,1.92c0.35,0.72,0.73,1.19,1.14,1.39c0.41,0.2,0.89,0.18,1.43-0.08
		c0.48-0.23,0.79-0.54,0.92-0.92c0.13-0.38,0.09-0.8-0.13-1.24l-0.05-0.1l1.67-0.8l0.04,0.09c0.46,0.96,0.53,1.83,0.21,2.61
		c-0.32,0.79-0.98,1.42-1.97,1.9c-2.16,1.04-3.81,0.38-4.96-1.99l-0.98-2.04C139.87,66.06,140.39,64.35,142.57,63.29z M135.37,67.16
		c0.88-0.48,1.71-0.62,2.48-0.41c0.77,0.21,1.39,0.73,1.86,1.58c0.44,0.8,0.54,1.58,0.3,2.34c-0.24,0.76-0.8,1.38-1.68,1.87
		l-1.59,0.88l1.81,3.29l-1.65,0.9l-4.76-8.67L135.37,67.16z M127.44,71.6c0.92-0.57,1.8-0.78,2.65-0.63
		c0.85,0.15,1.54,0.67,2.09,1.55l0.05,0.08l-1.6,0.99l-0.04-0.07c-0.27-0.43-0.6-0.7-1.01-0.79c-0.4-0.1-0.83,0-1.29,0.28
		c-0.51,0.32-0.79,0.71-0.82,1.17c-0.04,0.46,0.17,1.05,0.62,1.78l1.13,1.82c0.42,0.68,0.85,1.1,1.28,1.26
		c0.43,0.16,0.9,0.08,1.41-0.24c0.46-0.28,0.73-0.62,0.81-1.01c0.09-0.39,0-0.8-0.26-1.22l-0.06-0.1l1.57-0.97l0.05,0.08
		c0.56,0.9,0.72,1.76,0.48,2.58c-0.24,0.82-0.82,1.51-1.76,2.09c-2.04,1.27-3.75,0.78-5.14-1.46l-1.19-1.92
		C125.05,74.62,125.39,72.87,127.44,71.6z M104.83,88.63l6.81,2.29l-4.06-4.68l1.42-1.23l6.49,7.47l-1.42,1.23l-6.8-2.28l4.05,4.67
		l-1.42,1.23l-6.49-7.47L104.83,88.63z M101.91,91.29l6.8,7.2l-1.37,1.29l-6.8-7.2L101.91,91.29z M96.63,96.26
		c0.77-0.78,1.6-1.19,2.49-1.21c0.89-0.03,1.83,0.45,2.83,1.43l1.62,1.59c1,0.98,1.49,1.91,1.47,2.81c-0.02,0.9-0.42,1.74-1.19,2.54
		c-1.65,1.69-3.42,1.61-5.29-0.23l-1.62-1.59C95.05,99.75,94.95,97.97,96.63,96.26z M90.52,102.83c0.71-0.81,1.5-1.27,2.35-1.37
		s1.67,0.19,2.46,0.88l0.08,0.07l-1.24,1.41l-0.06-0.06c-0.38-0.33-0.78-0.49-1.19-0.47s-0.8,0.24-1.15,0.64
		c-0.4,0.45-0.55,0.9-0.45,1.35c0.1,0.45,0.47,0.96,1.11,1.52l1.6,1.41c0.6,0.53,1.13,0.81,1.59,0.84c0.46,0.03,0.89-0.18,1.29-0.64
		c0.35-0.4,0.52-0.8,0.49-1.21c-0.03-0.4-0.23-0.77-0.6-1.09l-0.09-0.08l1.22-1.39l0.08,0.07c0.8,0.7,1.2,1.48,1.21,2.33
		c0.01,0.85-0.35,1.69-1.07,2.51c-1.58,1.8-3.36,1.83-5.34,0.1l-1.7-1.5C89.11,106.42,88.92,104.65,90.52,102.83z M82.92,112.38
		c0.58-0.77,1.26-1.23,2.02-1.37c0.77-0.14,1.52,0.06,2.24,0.61c0.52,0.39,0.87,0.84,1.05,1.35c0.18,0.51,0.18,1.05,0.01,1.63
		l4.73,0.87l-1.3,1.73l-4.34-0.91l-0.85,1.12l3.21,2.41l-1.13,1.5l-7.9-5.95L82.92,112.38z M77.91,119.39l10.19,2.57l-1.11,1.66
		l-1.93-0.57l-1.89,2.83l1.26,1.57l-1.1,1.65l-6.27-8.42L77.91,119.39z M72.91,127.27c0.56-0.94,1.27-1.54,2.12-1.77
		c0.85-0.23,1.88,0.01,3.08,0.72l1.74,1.03c1.2,0.71,1.9,1.51,2.1,2.38c0.2,0.87,0.01,1.79-0.55,2.74l-1.75,2.95l-8.51-5.06
		L72.91,127.27z M68.57,135.03c0.51-0.97,1.18-1.6,2.02-1.88c0.84-0.28,1.87-0.1,3.11,0.55l1.79,0.94c1.24,0.65,1.98,1.4,2.22,2.26
		c0.25,0.86,0.11,1.78-0.4,2.77l-1.59,3.04l-8.77-4.58L68.57,135.03z M66.2,139.66l1.49,0.68l-1.84,4l2.23,1.02l1.57-3.42l1.49,0.68
		l-1.57,3.41l2.31,1.06l1.84-4l1.49,0.68l-2.62,5.71l-9-4.13L66.2,139.66z M60.86,152.08l3.78,1.5l1.21-3.05l-3.78-1.5l0.69-1.75
		l9.19,3.65l-0.69,1.75l-3.89-1.54l-1.21,3.05l3.89,1.54l-0.69,1.75l-9.19-3.65L60.86,152.08z M58.27,158.86
		c0.34-1.02,0.89-1.75,1.63-2.18c0.75-0.42,1.61-0.47,2.6-0.14l0.09,0.03l-0.6,1.78l-0.08-0.03c-0.48-0.16-0.91-0.15-1.28,0.03
		c-0.37,0.18-0.65,0.53-0.81,1.04c-0.19,0.57-0.15,1.05,0.12,1.42c0.27,0.38,0.8,0.7,1.61,0.97l2.03,0.68
		c0.76,0.25,1.36,0.31,1.79,0.15c0.43-0.15,0.75-0.51,0.94-1.09c0.17-0.51,0.16-0.94-0.02-1.3c-0.18-0.36-0.51-0.62-0.98-0.77
		l-0.11-0.04l0.59-1.75l0.1,0.03c1.01,0.34,1.68,0.9,2.02,1.67c0.34,0.78,0.33,1.69-0.01,2.73c-0.76,2.28-2.39,3-4.88,2.16
		l-2.15-0.72C58.37,162.72,57.51,161.16,58.27,158.86z M54.78,170.84c0.26-1.05,0.75-1.81,1.46-2.29c0.71-0.48,1.57-0.6,2.58-0.34
		l0.1,0.02l-0.46,1.82l-0.08-0.02c-0.49-0.12-0.92-0.08-1.27,0.13c-0.36,0.21-0.6,0.58-0.73,1.09c-0.15,0.58-0.07,1.05,0.22,1.41
		c0.3,0.35,0.86,0.64,1.68,0.84l2.07,0.52c0.78,0.2,1.38,0.2,1.8,0.01c0.42-0.18,0.7-0.57,0.85-1.15c0.13-0.52,0.09-0.95-0.12-1.29
		c-0.21-0.34-0.56-0.58-1.04-0.7l-0.11-0.03l0.45-1.79l0.1,0.02c1.03,0.26,1.74,0.76,2.14,1.51c0.4,0.75,0.46,1.66,0.2,2.72
		c-0.58,2.33-2.15,3.17-4.7,2.53l-2.2-0.55C55.17,174.68,54.19,173.18,54.78,170.84z M53.12,178.86c0.19-0.98,0.62-1.71,1.27-2.17
		c0.65-0.46,1.46-0.6,2.4-0.41c0.9,0.18,1.56,0.6,1.99,1.27c0.43,0.67,0.55,1.5,0.35,2.49l-0.35,1.79l3.69,0.72l-0.36,1.84
		l-9.71-1.9L53.12,178.86z M51.47,187.76c0.15-1.07,0.56-1.88,1.21-2.43c0.66-0.55,1.5-0.76,2.53-0.61l0.1,0.01l-0.26,1.86
		l-0.08-0.01c-0.5-0.07-0.92,0.02-1.25,0.27c-0.33,0.25-0.54,0.63-0.61,1.16c-0.08,0.6,0.04,1.06,0.37,1.38
		c0.33,0.32,0.92,0.54,1.76,0.66l2.11,0.3c0.8,0.11,1.39,0.05,1.79-0.17c0.4-0.23,0.64-0.64,0.73-1.24
		c0.08-0.53-0.01-0.96-0.25-1.27c-0.24-0.32-0.61-0.51-1.1-0.58l-0.11-0.02l0.26-1.83l0.1,0.01c1.05,0.15,1.81,0.57,2.29,1.28
		c0.47,0.7,0.64,1.6,0.48,2.69c-0.34,2.37-1.8,3.38-4.41,3.01l-2.24-0.32C52.26,191.54,51.13,190.15,51.47,187.76z M49.34,214.06
		h-2.08v-2.56h2.07c0.16-0.83,0.48-1.54,0.98-2.1c0.74-0.83,1.78-1.24,3.12-1.24h0.13v2.42h-0.11c-0.65,0-1.17,0.19-1.55,0.56
		c-0.38,0.38-0.57,0.91-0.57,1.6c0,0.78,0.24,1.34,0.72,1.69c0.48,0.35,1.27,0.53,2.36,0.53h2.75c1.03,0,1.79-0.18,2.25-0.55
		c0.47-0.36,0.7-0.93,0.7-1.71c0-0.69-0.18-1.22-0.55-1.58c-0.37-0.36-0.87-0.54-1.51-0.54H57.9v-2.38h0.13
		c1.37,0,2.42,0.41,3.15,1.22c0.5,0.55,0.81,1.25,0.97,2.08h2.07v2.56h-2.08c-0.44,2.22-2.08,3.34-4.95,3.34h-2.92
		C51.42,217.4,49.79,216.27,49.34,214.06z M52.76,241.25l5.47-4.67l-6.1,1.08l-0.33-1.85l9.75-1.73l0.33,1.85l-5.45,4.67l6.09-1.08
		l0.33,1.85l-9.75,1.73L52.76,241.25z M53.56,245.15l9.66-2.12l0.4,1.83l-9.66,2.12L53.56,245.15z M55.09,252.22
		c-0.28-1.07-0.2-1.99,0.24-2.76c0.44-0.78,1.33-1.34,2.68-1.69l2.19-0.57c1.35-0.35,2.41-0.29,3.17,0.19
		c0.76,0.48,1.28,1.25,1.56,2.33c0.6,2.29-0.38,3.76-2.92,4.43l-2.19,0.57C57.27,255.38,55.7,254.55,55.09,252.22z M57.61,260.88
		c-0.33-1.03-0.32-1.93,0.03-2.72c0.35-0.79,1.02-1.34,2.01-1.66l0.1-0.03l0.58,1.79l-0.08,0.03c-0.48,0.16-0.82,0.42-1.01,0.79
		c-0.19,0.37-0.21,0.81-0.04,1.32c0.18,0.57,0.5,0.93,0.93,1.08c0.44,0.14,1.06,0.09,1.87-0.17l2.03-0.65
		c0.77-0.25,1.28-0.56,1.54-0.94c0.26-0.38,0.3-0.86,0.11-1.43c-0.16-0.51-0.43-0.86-0.79-1.04c-0.36-0.18-0.78-0.2-1.25-0.04
		l-0.11,0.03l-0.57-1.76l0.1-0.03c1.01-0.33,1.88-0.28,2.62,0.15c0.73,0.43,1.27,1.16,1.61,2.21c0.73,2.28-0.15,3.83-2.65,4.63
		l-2.16,0.69C59.97,263.93,58.35,263.18,57.61,260.88z M61.9,272.29c-0.36-0.89-0.41-1.71-0.14-2.44c0.27-0.73,0.83-1.27,1.67-1.61
		c0.6-0.25,1.17-0.32,1.7-0.21c0.53,0.11,1,0.38,1.41,0.83l3.17-3.62l0.82,2.01l-3.01,3.26l0.53,1.3l3.72-1.52l0.71,1.74l-9.16,3.74
		L61.9,272.29z M65.34,280.18l7.43-7.43l0.85,1.8l-1.48,1.37l1.46,3.07l1.99-0.28l0.85,1.79L66,281.57L65.34,280.18z M69.55,288.51
		c-0.52-0.97-0.67-1.87-0.43-2.73c0.24-0.85,0.97-1.61,2.2-2.27l1.78-0.96c1.23-0.66,2.27-0.86,3.12-0.58
		c0.85,0.28,1.54,0.91,2.07,1.88l1.63,3.01l-8.71,4.71L69.55,288.51z M73.96,296.19c-0.57-0.94-0.77-1.84-0.58-2.7
		c0.19-0.86,0.88-1.66,2.07-2.39l1.72-1.06c1.19-0.73,2.22-0.98,3.08-0.75c0.87,0.23,1.59,0.82,2.17,1.77l1.79,2.92l-8.44,5.17
		L73.96,296.19z M76.74,300.62l1.35-0.92l2.49,3.63l2.02-1.39l-2.12-3.1l1.35-0.92l2.13,3.1l2.09-1.44l-2.49-3.63l1.35-0.92
		l3.55,5.18l-8.16,5.6L76.74,300.62z M84.65,311.6l3.23-2.48l-2-2.61l-3.23,2.47l-1.14-1.49l7.85-6.01l1.14,1.49l-3.32,2.54l2,2.61
		l3.32-2.54l1.14,1.49l-7.85,6.01L84.65,311.6z M94.48,317.49c-2,1.71-3.78,1.64-5.35-0.19c-0.7-0.82-1.04-1.66-1.02-2.52
		c0.02-0.86,0.43-1.63,1.22-2.31l0.08-0.07l1.22,1.43l-0.07,0.05c-0.38,0.33-0.6,0.7-0.63,1.12c-0.04,0.42,0.12,0.83,0.47,1.23
		c0.39,0.46,0.82,0.67,1.28,0.63c0.46-0.03,1.01-0.33,1.66-0.88l1.62-1.39c0.61-0.52,0.96-1.01,1.05-1.46
		c0.09-0.45-0.06-0.91-0.45-1.36c-0.35-0.41-0.72-0.62-1.12-0.65c-0.4-0.03-0.79,0.12-1.17,0.44l-0.09,0.08l-1.2-1.41l0.08-0.07
		c0.81-0.69,1.63-0.98,2.47-0.87c0.84,0.11,1.62,0.58,2.34,1.42c1.56,1.82,1.34,3.59-0.66,5.3L94.48,317.49z M97.57,326.44
		c-0.76-0.77-1.17-1.58-1.21-2.44c-0.04-0.86,0.3-1.66,1.04-2.39l0.07-0.07l1.33,1.33l-0.06,0.06c-0.36,0.36-0.54,0.74-0.54,1.16
		c0,0.42,0.18,0.81,0.56,1.19c0.42,0.43,0.87,0.61,1.32,0.54c0.46-0.07,0.99-0.41,1.59-1l1.51-1.51c0.57-0.57,0.88-1.08,0.94-1.54
		c0.06-0.46-0.12-0.9-0.55-1.32c-0.38-0.38-0.77-0.57-1.17-0.57c-0.4,0-0.78,0.18-1.13,0.53l-0.08,0.08l-1.31-1.31l0.07-0.07
		c0.75-0.75,1.55-1.1,2.4-1.05c0.85,0.05,1.66,0.46,2.44,1.24c1.69,1.7,1.61,3.48-0.26,5.33l-1.61,1.6
		C101.06,328.09,99.28,328.16,97.57,326.44z M103.6,332c-0.74-0.67-1.15-1.41-1.2-2.21c-0.06-0.8,0.24-1.56,0.88-2.27
		c0.61-0.68,1.32-1.03,2.12-1.05c0.8-0.02,1.57,0.3,2.31,0.98l1.35,1.22l2.52-2.79l1.39,1.26l-6.63,7.34L103.6,332z M117.11,335.5
		l-1.43,1.76c-1.66,2.04-3.42,2.3-5.3,0.77c-0.84-0.68-1.33-1.45-1.46-2.29c-0.14-0.85,0.13-1.68,0.78-2.49l0.06-0.08l1.46,1.19
		l-0.05,0.07c-0.32,0.39-0.46,0.8-0.42,1.21c0.04,0.41,0.27,0.79,0.68,1.13c0.47,0.38,0.92,0.51,1.37,0.39
		c0.45-0.12,0.94-0.51,1.47-1.17l1.35-1.66c0.51-0.62,0.76-1.17,0.77-1.62c0.01-0.46-0.22-0.88-0.69-1.26
		c-0.42-0.34-0.82-0.48-1.22-0.44c-0.4,0.04-0.76,0.26-1.07,0.65l-0.07,0.09l-1.44-1.17l0.06-0.08c0.67-0.82,1.43-1.26,2.28-1.3
		c0.85-0.04,1.7,0.28,2.55,0.97C118.67,331.68,118.77,333.46,117.11,335.5z M133.89,353.81l-0.08-7.18l-3.08,5.37l-1.63-0.93
		l4.92-8.58l1.63,0.93l0.09,7.17l3.07-5.36l1.63,0.93l-4.92,8.58L133.89,353.81z M137.37,355.69l4.57-8.78l1.67,0.87l-4.56,8.78
		L137.37,355.69z M143.81,359.05c-0.99-0.47-1.65-1.12-1.96-1.95c-0.32-0.83-0.18-1.88,0.42-3.14l0.97-2.05
		c0.6-1.26,1.32-2.03,2.18-2.31c0.85-0.28,1.78-0.18,2.79,0.29c2.13,1.01,2.64,2.7,1.52,5.08l-0.97,2.05
		C147.62,359.4,145.98,360.08,143.81,359.05z M157.73,358.26l-0.85,2.1c-0.99,2.44-2.6,3.2-4.84,2.29c-1-0.41-1.69-0.99-2.07-1.77
		c-0.38-0.77-0.37-1.64,0.02-2.6l0.04-0.09l1.74,0.7l-0.03,0.08c-0.19,0.47-0.21,0.9-0.05,1.28c0.16,0.38,0.49,0.68,0.98,0.88
		c0.56,0.23,1.03,0.22,1.43-0.03c0.39-0.24,0.75-0.76,1.07-1.55l0.8-1.98c0.3-0.74,0.39-1.34,0.26-1.78c-0.13-0.44-0.47-0.78-1.02-1
		c-0.5-0.2-0.93-0.22-1.3-0.06c-0.37,0.16-0.65,0.47-0.83,0.93l-0.04,0.11l-1.71-0.69l0.04-0.09c0.4-0.98,1-1.62,1.79-1.91
		c0.8-0.29,1.71-0.23,2.73,0.18C158.09,354.16,158.71,355.83,157.73,358.26z M167.15,367.82l-3.58-1.14
		c-0.92-0.29-1.57-0.78-1.96-1.46c-0.39-0.68-0.44-1.45-0.17-2.32c0.2-0.62,0.51-1.1,0.93-1.44c0.42-0.33,0.94-0.52,1.54-0.55
		l-0.74-4.75l2.06,0.66l0.57,4.39l1.34,0.43l1.22-3.82l1.79,0.57L167.15,367.82z M171.83,369.09l-0.95-10.46l1.93,0.5l0.1,2.01
		l3.29,0.85l1.06-1.71l1.92,0.49l-5.87,8.7L171.83,369.09z M184.35,371.89l-3.41-0.69c-1.08-0.22-1.87-0.69-2.37-1.42
		c-0.5-0.72-0.61-1.77-0.34-3.14l0.4-1.98c0.28-1.37,0.79-2.29,1.55-2.76s1.68-0.6,2.77-0.38l3.36,0.68L184.35,371.89z
		 M193.11,373.23l-3.45-0.51c-1.09-0.16-1.9-0.59-2.44-1.29c-0.54-0.7-0.71-1.74-0.51-3.12l0.29-2c0.2-1.38,0.67-2.33,1.4-2.84
		c0.73-0.52,1.65-0.69,2.75-0.53l3.39,0.5L193.11,373.23z M201.06,374.04l-6.25-0.62l0.16-1.63l4.38,0.43l0.24-2.44l-3.74-0.37
		l0.16-1.63l3.74,0.37l0.25-2.53l-4.38-0.44l0.16-1.63l6.25,0.62L201.06,374.04z M210.18,374.49l-1.88-0.08l0.17-4.07l-3.28-0.14
		l-0.17,4.07l-1.88-0.08l0.42-9.88l1.88,0.08l-0.18,4.18l3.28,0.14l0.18-4.18l1.88,0.08L210.18,374.49z M215.54,374.62
		c-1.08,0.01-1.94-0.27-2.59-0.83c-0.65-0.57-0.98-1.37-0.99-2.41l0-0.1l1.88-0.02l0,0.09c0,0.51,0.15,0.91,0.45,1.2
		c0.3,0.29,0.71,0.44,1.25,0.43c0.6-0.01,1.04-0.2,1.31-0.57c0.27-0.38,0.4-0.99,0.39-1.84l-0.02-2.14
		c-0.01-0.8-0.16-1.38-0.44-1.74c-0.29-0.36-0.73-0.54-1.33-0.53c-0.54,0-0.94,0.15-1.22,0.44c-0.28,0.29-0.42,0.68-0.41,1.18
		l0,0.12l-1.85,0.02l0-0.1c-0.01-1.06,0.29-1.88,0.92-2.46c0.62-0.58,1.49-0.87,2.59-0.88c2.4-0.03,3.61,1.28,3.64,3.91l0.02,2.27
		C219.16,373.27,217.96,374.6,215.54,374.62z M228,374.01c-1.08,0.09-1.96-0.12-2.65-0.63c-0.69-0.52-1.08-1.29-1.17-2.33l-0.01-0.1
		l1.87-0.16l0.01,0.09c0.04,0.5,0.22,0.89,0.54,1.16c0.32,0.27,0.74,0.38,1.27,0.33c0.6-0.05,1.02-0.28,1.26-0.67
		c0.24-0.39,0.32-1.02,0.25-1.86l-0.19-2.13c-0.07-0.8-0.26-1.37-0.57-1.71c-0.31-0.34-0.77-0.48-1.37-0.43
		c-0.53,0.05-0.93,0.23-1.18,0.54c-0.26,0.31-0.36,0.71-0.32,1.21l0.01,0.11l-1.84,0.16l-0.01-0.1c-0.09-1.06,0.15-1.9,0.73-2.52
		c0.58-0.62,1.42-0.98,2.51-1.08c2.39-0.21,3.7,1,3.93,3.61l0.2,2.26C231.5,372.38,230.41,373.8,228,374.01z M236.14,372.95
		c-0.99,0.14-1.81-0.02-2.46-0.49c-0.65-0.47-1.04-1.18-1.18-2.13c-0.13-0.91,0.06-1.67,0.55-2.3c0.5-0.62,1.24-1.01,2.23-1.15
		l1.8-0.26l-0.53-3.72l1.86-0.26l1.38,9.79L236.14,372.95z M245.09,371.6c-1.06,0.21-1.96,0.09-2.7-0.35
		c-0.74-0.44-1.21-1.17-1.41-2.19l-0.02-0.1l1.84-0.36l0.02,0.08c0.1,0.5,0.32,0.86,0.66,1.1c0.34,0.23,0.78,0.3,1.3,0.2
		c0.59-0.12,0.98-0.38,1.18-0.8c0.2-0.42,0.21-1.04,0.05-1.88l-0.41-2.09c-0.15-0.79-0.4-1.33-0.75-1.64
		c-0.35-0.3-0.81-0.4-1.41-0.28c-0.53,0.1-0.9,0.32-1.12,0.66c-0.22,0.34-0.29,0.75-0.19,1.24l0.02,0.11l-1.81,0.36l-0.02-0.1
		c-0.2-1.04-0.05-1.9,0.46-2.58c0.51-0.68,1.31-1.12,2.38-1.33c2.35-0.46,3.78,0.6,4.29,3.18l0.44,2.22
		C248.4,369.61,247.46,371.13,245.09,371.6z M272.28,363.64l-5.58-4.54l2.16,5.81l-1.76,0.66l-3.45-9.28l1.76-0.66l5.57,4.52
		l-2.16-5.8l1.76-0.66l3.45,9.28L272.28,363.64z M275.96,362.15l-3.83-9.12l1.73-0.73l3.83,9.12L275.96,362.15z M282.64,359.38
		c-1,0.46-1.92,0.55-2.76,0.26c-0.84-0.29-1.56-1.07-2.15-2.33l-0.96-2.05c-0.59-1.27-0.72-2.32-0.38-3.15
		c0.33-0.83,1-1.49,2.01-1.96c2.14-1,3.77-0.3,4.87,2.08l0.96,2.05C285.34,356.66,284.81,358.36,282.64,359.38z M290.71,355.35
		c-0.95,0.51-1.85,0.66-2.68,0.46c-0.84-0.2-1.5-0.76-1.99-1.68l-0.05-0.09l1.66-0.89l0.04,0.08c0.24,0.45,0.56,0.73,0.96,0.86
		c0.4,0.12,0.83,0.06,1.3-0.19c0.53-0.28,0.83-0.66,0.89-1.11c0.06-0.46-0.11-1.06-0.51-1.81l-1.01-1.88
		c-0.38-0.71-0.78-1.16-1.2-1.34s-0.9-0.14-1.43,0.15c-0.47,0.25-0.76,0.57-0.88,0.96c-0.11,0.38-0.05,0.8,0.18,1.24l0.05,0.1
		l-1.63,0.87l-0.05-0.09c-0.5-0.93-0.61-1.8-0.32-2.6c0.29-0.8,0.92-1.46,1.89-1.98c2.12-1.13,3.79-0.54,5.04,1.78l1.07,2
		C293.28,352.48,292.84,354.21,290.71,355.35z M301.16,349.07c-0.81,0.52-1.61,0.71-2.38,0.57c-0.77-0.14-1.4-0.59-1.89-1.36
		c-0.35-0.55-0.52-1.09-0.51-1.63c0.01-0.54,0.2-1.05,0.56-1.53l-4.13-2.47l1.83-1.17l3.74,2.38l1.19-0.75l-2.16-3.39l1.58-1.01
		l5.32,8.34L301.16,349.07z M308.3,344.27l-8.63-5.98l1.62-1.16l1.61,1.21l2.76-1.98l-0.63-1.91l1.61-1.15l2.91,10.08L308.3,344.27z
		 M315.76,338.65c-0.86,0.69-1.73,0.99-2.61,0.91c-0.88-0.08-1.75-0.67-2.63-1.76l-1.26-1.58c-0.87-1.09-1.25-2.08-1.12-2.97
		c0.12-0.89,0.62-1.68,1.48-2.37l2.68-2.14l6.18,7.73L315.76,338.65z M322.53,332.94c-0.82,0.73-1.67,1.08-2.55,1.05
		c-0.88-0.03-1.79-0.57-2.72-1.61l-1.35-1.51c-0.93-1.04-1.36-2.01-1.28-2.9c0.07-0.89,0.52-1.71,1.35-2.45l2.56-2.28l6.59,7.38
		L322.53,332.94z M326.38,329.43l-1.15-1.16l3.13-3.1l-1.72-1.74l-2.67,2.64l-1.15-1.16l2.67-2.64l-1.79-1.81l-3.13,3.1l-1.15-1.16
		l4.46-4.42l6.96,7.04L326.38,329.43z M335.76,319.7l-3.01-2.74l-2.21,2.43l3.01,2.74l-1.27,1.39l-7.32-6.66l1.26-1.39l3.1,2.82
		l2.21-2.43l-3.1-2.82l1.27-1.39l7.32,6.66L335.76,319.7z M340.58,314.26c-0.68,0.84-1.45,1.32-2.3,1.46
		c-0.85,0.13-1.68-0.13-2.49-0.79l-0.08-0.06l1.19-1.46l0.07,0.05c0.39,0.32,0.8,0.46,1.21,0.42c0.41-0.04,0.79-0.27,1.13-0.68
		c0.38-0.47,0.51-0.92,0.39-1.37c-0.12-0.45-0.5-0.94-1.16-1.48l-1.66-1.35c-0.62-0.51-1.16-0.76-1.62-0.78
		c-0.46-0.01-0.88,0.22-1.26,0.68c-0.34,0.41-0.48,0.82-0.44,1.22c0.04,0.4,0.26,0.76,0.64,1.07l0.09,0.07l-1.17,1.43l-0.08-0.06
		c-0.82-0.67-1.25-1.43-1.3-2.28c-0.04-0.85,0.28-1.7,0.98-2.55c1.52-1.86,3.29-1.96,5.33-0.3l1.76,1.43
		C341.85,310.62,342.11,312.38,340.58,314.26z M348.08,304.32c-0.62,0.89-1.34,1.43-2.18,1.63c-0.84,0.2-1.68,0-2.54-0.6l-0.08-0.06
		l1.07-1.54l0.07,0.05c0.42,0.29,0.83,0.4,1.24,0.33c0.41-0.07,0.77-0.32,1.07-0.76c0.34-0.49,0.44-0.96,0.29-1.4
		c-0.15-0.44-0.57-0.9-1.27-1.38l-1.75-1.22c-0.66-0.46-1.22-0.68-1.68-0.65c-0.46,0.02-0.86,0.28-1.21,0.78
		c-0.31,0.44-0.42,0.86-0.35,1.25c0.08,0.39,0.32,0.73,0.72,1.02l0.09,0.07l-1.06,1.52l-0.08-0.06c-0.87-0.61-1.36-1.33-1.47-2.17
		c-0.11-0.84,0.15-1.71,0.78-2.62c1.37-1.97,3.14-2.2,5.29-0.7l1.86,1.29C349.07,300.59,349.46,302.33,348.08,304.32z M352.47,297.4
		c-0.53,0.85-1.18,1.38-1.96,1.58c-0.78,0.2-1.57,0.04-2.39-0.46c-0.78-0.48-1.25-1.12-1.41-1.9c-0.16-0.78,0.02-1.6,0.55-2.45
		l0.96-1.55l-3.19-1.98l0.99-1.6l8.41,5.21L352.47,297.4z M357.18,289.64c-0.52,0.95-1.18,1.56-2,1.85
		c-0.81,0.29-1.67,0.18-2.58-0.32l-0.09-0.05l0.9-1.65l0.07,0.04c0.44,0.24,0.87,0.31,1.27,0.19c0.4-0.11,0.73-0.4,0.99-0.87
		c0.29-0.53,0.34-1,0.14-1.42c-0.2-0.42-0.67-0.83-1.41-1.24l-1.87-1.03c-0.7-0.39-1.28-0.54-1.74-0.47
		c-0.45,0.07-0.83,0.37-1.11,0.9c-0.26,0.47-0.33,0.9-0.21,1.28c0.11,0.38,0.39,0.7,0.83,0.94l0.1,0.06l-0.89,1.62l-0.09-0.05
		c-0.93-0.51-1.49-1.18-1.69-2.01c-0.2-0.83-0.03-1.72,0.5-2.68c1.15-2.1,2.88-2.52,5.19-1.26l1.98,1.09
		C357.77,285.83,358.34,287.53,357.18,289.64z M368.48,263.68l-7.05,1.37l5.84,2.06l-0.62,1.77l-9.33-3.29l0.62-1.77l7.04-1.38
		l-5.83-2.05l0.62-1.77l9.33,3.29L368.48,263.68z M369.7,259.91l-9.46-2.9l0.55-1.8l9.46,2.9L369.7,259.91z M371.85,252.96
		c-0.28,1.06-0.8,1.83-1.56,2.29c-0.76,0.46-1.81,0.51-3.16,0.16l-2.19-0.58c-1.35-0.36-2.24-0.93-2.67-1.72
		c-0.43-0.79-0.5-1.72-0.22-2.79c0.6-2.28,2.18-3.09,4.72-2.42l2.19,0.58C371.5,249.14,372.47,250.64,371.85,252.96z M373.92,244.23
		c-0.22,1.06-0.67,1.84-1.36,2.35c-0.69,0.51-1.55,0.66-2.57,0.45l-0.1-0.02l0.38-1.84l0.08,0.02c0.5,0.1,0.92,0.04,1.27-0.18
		c0.35-0.23,0.58-0.6,0.69-1.13c0.12-0.59,0.03-1.05-0.28-1.4c-0.31-0.34-0.88-0.6-1.72-0.77l-2.09-0.43
		c-0.79-0.16-1.39-0.14-1.8,0.06c-0.41,0.2-0.68,0.6-0.8,1.19c-0.11,0.52-0.05,0.95,0.17,1.29c0.22,0.33,0.58,0.55,1.07,0.65
		l0.11,0.02l-0.37,1.81l-0.1-0.02c-1.04-0.21-1.77-0.69-2.2-1.42c-0.43-0.73-0.53-1.64-0.31-2.71c0.48-2.35,2.01-3.26,4.59-2.73
		l2.22,0.46C373.36,240.41,374.4,241.86,373.92,244.23z M375.8,232.17c-0.12,0.96-0.48,1.69-1.08,2.19c-0.6,0.5-1.35,0.69-2.25,0.58
		c-0.64-0.08-1.17-0.3-1.58-0.66c-0.41-0.36-0.68-0.83-0.82-1.41l-4.54,1.59l0.28-2.15l4.22-1.35l0.18-1.39l-3.98-0.51l0.24-1.86
		l9.82,1.26L375.8,232.17z M376.7,223.58l-10.11,2.86l0.13-1.99l1.96-0.47l0.23-3.39l-1.88-0.73l0.13-1.97l9.64,4.17L376.7,223.58z
		 M376.19,216.87c-0.62,0.62-1.64,0.92-3.03,0.89l-2.02-0.04c-1.4-0.03-2.39-0.38-3-1.04c-0.6-0.66-0.89-1.55-0.87-2.66l0.07-3.43
		l9.89,0.21l-0.07,3.49C377.14,215.39,376.81,216.25,376.19,216.87z"/>
        <path class="st7" d="M310.61,332.19c-0.44,0.35-0.65,0.76-0.64,1.23c0.01,0.47,0.27,1.01,0.77,1.64l1.19,1.49
		c0.53,0.66,1.02,1.05,1.47,1.17c0.45,0.12,0.9,0,1.35-0.36l1.24-0.99l-4.14-5.18L310.61,332.19z"/>
        <path class="st7" d="M372.71,233.07c0.4,0.05,0.73-0.03,1-0.25c0.27-0.22,0.43-0.54,0.48-0.96l0.23-1.76l-2.66-0.34l-0.23,1.76
		c-0.06,0.44,0.02,0.79,0.22,1.06C371.95,232.85,372.27,233.02,372.71,233.07z"/>
        <path class="st7" d="M317.04,326.76c-0.42,0.38-0.61,0.8-0.57,1.26c0.04,0.47,0.32,1,0.86,1.6l1.27,1.42
		c0.56,0.63,1.07,0.99,1.53,1.09c0.46,0.1,0.9-0.04,1.33-0.43l1.19-1.06l-4.41-4.94L317.04,326.76z"/>
        <path class="st7" d="M368.9,214.1c-0.01,0.56,0.16,0.99,0.53,1.28c0.37,0.29,0.95,0.44,1.76,0.46l1.91,0.04
		c0.84,0.02,1.45-0.11,1.84-0.38c0.38-0.27,0.58-0.69,0.59-1.26l0.03-1.59l-6.62-0.14L368.9,214.1z"/>
        <path class="st7" d="M281.57,353.05c-0.34-0.74-0.71-1.21-1.11-1.42c-0.39-0.21-0.86-0.19-1.41,0.06
		c-0.52,0.24-0.83,0.59-0.92,1.04c-0.1,0.45,0.02,1.04,0.36,1.75l0.9,1.94c0.35,0.76,0.74,1.26,1.15,1.48
		c0.41,0.23,0.88,0.22,1.4-0.03c0.55-0.25,0.86-0.61,0.95-1.05c0.09-0.45-0.05-1.06-0.41-1.84L281.57,353.05z"/>
        <polygon class="st7" points="370.44,221.19 370.28,223.58 374.15,222.63 	"/>
        <path class="st7" d="M349.11,296.92c0.41,0.25,0.78,0.34,1.13,0.25c0.35-0.08,0.64-0.32,0.89-0.71l0.91-1.47l-2.42-1.5l-0.91,1.47
		c-0.24,0.38-0.32,0.75-0.25,1.09C348.52,296.4,348.74,296.69,349.11,296.92z"/>
        <path class="st7" d="M368.38,250.28l-2.06-0.55c-0.79-0.21-1.39-0.23-1.8-0.06c-0.42,0.17-0.7,0.54-0.85,1.12
		c-0.15,0.55-0.08,1.01,0.21,1.37c0.28,0.36,0.81,0.64,1.58,0.85l2.06,0.55c0.81,0.21,1.44,0.24,1.87,0.07
		c0.44-0.17,0.73-0.53,0.87-1.09c0.15-0.58,0.09-1.05-0.2-1.4C369.77,250.78,369.21,250.5,368.38,250.28z"/>
        <polygon class="st7" points="304.21,339.32 307.41,341.7 306.16,337.92 	"/>
        <path class="st7" d="M298.25,346.23c-0.08,0.33,0,0.68,0.24,1.05c0.22,0.34,0.49,0.54,0.83,0.61c0.34,0.07,0.69-0.01,1.05-0.25
		l1.5-0.96l-1.44-2.26l-1.5,0.96C298.56,345.62,298.33,345.9,298.25,346.23z"/>
        <path class="st5" d="M342.07,82.39c-70.85-70.85-186.12-70.85-256.97,0c-34.32,34.32-53.22,79.95-53.22,128.49
		s18.9,94.17,53.22,128.48c34.32,34.32,79.95,53.22,128.49,53.22s94.17-18.9,128.49-53.22c34.32-34.32,53.22-79.95,53.22-128.48
		S376.39,116.71,342.07,82.39z M335,332.29c-32.43,32.43-75.55,50.29-121.41,50.29s-88.98-17.86-121.41-50.29
		c-32.43-32.43-50.29-75.55-50.29-121.41c0-45.86,17.86-88.98,50.29-121.41c33.47-33.47,77.44-50.21,121.41-50.21
		S301.52,55.98,335,89.46c32.43,32.43,50.29,75.55,50.29,121.41C385.29,256.74,367.43,299.86,335,332.29z"/>
        <circle class="st5" cx="158.99" cy="266.77" r="15.48"/>

        <ellipse transform="matrix(0.7071 -0.7071 0.7071 0.7071 -78.7331 155.6786)" class="st5" cx="148.55" cy="172.88" rx="25.91" ry="25.91"/>
        <circle class="st5" cx="304.84" cy="261.38" r="10.08"/>

        <ellipse transform="matrix(0.9239 -0.3827 0.3827 0.9239 -95.2115 112.6901)" class="st5" cx="235.66" cy="295.67" rx="20.15" ry="20.15"/>
        <path class="st5" d="M111.57,312.88c56.34,56.34,147.68,56.34,204.02,0c56.34-56.34,56.34-147.68,0-204.02
		c-56.34-56.34-147.68-56.34-204.02,0C55.23,165.2,55.23,256.55,111.57,312.88z M249.15,139.11c0-15.41,6.01-24.28,17.98-26.67
		v-11.15h13.77v11.08c4.49,0.86,8.27,2.63,11.32,5.36c4.44,3.98,6.67,9.58,6.67,16.81v0.7h-13.03v-0.6c0-3.51-1.01-6.3-3.03-8.36
		c-2.02-2.06-4.89-3.08-8.6-3.08c-4.18,0-7.21,1.29-9.1,3.88c-1.89,2.59-2.84,6.83-2.84,12.73v14.82c0,5.57,0.98,9.62,2.94,12.14
		c1.96,2.52,5.02,3.78,9.2,3.78c3.71,0,6.55-0.99,8.51-2.98c1.96-1.99,2.93-4.71,2.93-8.16v-0.8h12.83v0.7
		c0,7.36-2.19,13.02-6.57,16.96c-2.98,2.69-6.73,4.44-11.22,5.29v11.09h-13.77v-11.12c-11.97-2.35-17.98-11.23-17.98-26.7V139.11z
		 M215.13,83.91v125.04h44.41c-0.61,1.66-0.94,3.45-0.94,5.32c0,8.55,6.93,15.48,15.48,15.48s15.48-6.93,15.48-15.48
		c0-1.87-0.33-3.66-0.94-5.32h51.55c0,69.06-55.98,125.04-125.04,125.04S90.08,278.01,90.08,208.95
		C90.08,139.89,146.07,83.91,215.13,83.91z"/>
        <path class="st7" d="M215.13,334c69.06,0,125.04-55.98,125.04-125.04h-51.55c0.61,1.66,0.94,3.45,0.94,5.32
		c0,8.55-6.93,15.48-15.48,15.48s-15.48-6.93-15.48-15.48c0-1.87,0.33-3.66,0.94-5.32h-44.41V83.91
		c-69.06,0-125.04,55.98-125.04,125.04C90.08,278.01,146.07,334,215.13,334z M304.84,251.29c5.57,0,10.08,4.51,10.08,10.08
		s-4.51,10.08-10.08,10.08s-10.08-4.51-10.08-10.08S299.27,251.29,304.84,251.29z M235.66,275.52c11.13,0,20.15,9.02,20.15,20.15
		c0,11.13-9.02,20.15-20.15,20.15s-20.15-9.02-20.15-20.15C215.51,284.55,224.53,275.52,235.66,275.52z M158.99,282.25
		c-8.55,0-15.48-6.93-15.48-15.48c0-8.55,6.93-15.48,15.48-15.48s15.48,6.93,15.48,15.48C174.47,275.32,167.54,282.25,158.99,282.25
		z M148.55,146.96c14.31,0,25.91,11.6,25.91,25.91c0,14.31-11.6,25.91-25.91,25.91s-25.91-11.6-25.91-25.91
		C122.64,158.57,134.24,146.96,148.55,146.96z"/>
        <path class="st7" d="M267.13,181.52v11.12h13.77v-11.09c4.49-0.86,8.24-2.61,11.22-5.29c4.38-3.95,6.57-9.6,6.57-16.96v-0.7h-12.83
		v0.8c0,3.45-0.98,6.17-2.93,8.16c-1.96,1.99-4.79,2.98-8.51,2.98c-4.18,0-7.25-1.26-9.2-3.78c-1.96-2.52-2.94-6.57-2.94-12.14
		V139.8c0-5.9,0.95-10.15,2.84-12.73c1.89-2.59,4.92-3.88,9.1-3.88c3.71,0,6.58,1.03,8.6,3.08c2.02,2.06,3.03,4.84,3.03,8.36v0.6
		h13.03v-0.7c0-7.23-2.22-12.83-6.67-16.81c-3.05-2.73-6.83-4.5-11.32-5.36v-11.08h-13.77v11.15
		c-11.97,2.39-17.98,11.26-17.98,26.67v15.72C249.15,170.29,255.16,179.17,267.13,181.52z"/>
        <path class="st5" d="M57.2,217.4c2.87,0,4.51-1.12,4.95-3.34h2.08v-2.56h-2.07c-0.16-0.83-0.47-1.53-0.97-2.08
		c-0.73-0.81-1.78-1.22-3.15-1.22H57.9v2.38h0.15c0.64,0,1.15,0.18,1.51,0.54c0.37,0.36,0.55,0.89,0.55,1.58
		c0,0.78-0.23,1.35-0.7,1.71c-0.47,0.36-1.22,0.55-2.25,0.55h-2.75c-1.1,0-1.88-0.18-2.36-0.53c-0.48-0.35-0.72-0.91-0.72-1.69
		c0-0.69,0.19-1.22,0.57-1.6c0.38-0.38,0.9-0.56,1.55-0.56h0.11v-2.42h-0.13c-1.34,0-2.38,0.41-3.12,1.24
		c-0.51,0.56-0.82,1.27-0.98,2.1h-2.07v2.56h2.08c0.45,2.22,2.08,3.34,4.94,3.34H57.2z"/>
        <path class="st5" d="M54.87,191.9l2.24,0.32c2.6,0.37,4.07-0.64,4.41-3.01c0.15-1.09-0.01-1.99-0.48-2.69
		c-0.48-0.7-1.24-1.13-2.29-1.28l-0.1-0.01l-0.26,1.83l0.11,0.02c0.49,0.07,0.86,0.26,1.1,0.58c0.24,0.32,0.33,0.74,0.25,1.27
		c-0.08,0.6-0.33,1.01-0.73,1.24c-0.4,0.23-1,0.29-1.79,0.17l-2.11-0.3c-0.84-0.12-1.43-0.34-1.76-0.66
		c-0.33-0.32-0.45-0.78-0.37-1.38c0.08-0.53,0.28-0.92,0.61-1.16c0.33-0.25,0.75-0.34,1.25-0.27l0.08,0.01l0.26-1.86l-0.1-0.01
		c-1.03-0.15-1.88,0.06-2.53,0.61c-0.66,0.55-1.06,1.36-1.21,2.43C51.13,190.15,52.26,191.54,54.87,191.9z"/>
        <path class="st5" d="M62.49,182.54l-3.69-0.72l0.35-1.79c0.19-0.98,0.07-1.81-0.35-2.49c-0.43-0.67-1.09-1.1-1.99-1.27
		c-0.95-0.18-1.75-0.05-2.4,0.41c-0.65,0.46-1.08,1.19-1.27,2.17l-0.71,3.63l9.71,1.9L62.49,182.54z M57.51,179.8l-0.33,1.7
		l-2.8-0.55l0.33-1.7c0.09-0.45,0.28-0.78,0.58-0.97c0.3-0.2,0.68-0.25,1.15-0.16c0.43,0.08,0.74,0.28,0.93,0.57
		C57.55,178.99,57.6,179.36,57.51,179.8z"/>
        <path class="st5" d="M57.72,175.31l2.2,0.55c2.55,0.64,4.12-0.21,4.7-2.53c0.27-1.07,0.2-1.97-0.2-2.72
		c-0.4-0.75-1.11-1.25-2.14-1.51l-0.1-0.02l-0.45,1.79l0.11,0.03c0.48,0.12,0.83,0.35,1.04,0.7c0.21,0.34,0.25,0.77,0.12,1.29
		c-0.15,0.58-0.43,0.97-0.85,1.15c-0.42,0.19-1.02,0.18-1.8-0.01l-2.07-0.52c-0.83-0.21-1.39-0.49-1.68-0.84
		c-0.3-0.36-0.37-0.82-0.22-1.41c0.13-0.52,0.37-0.88,0.73-1.09c0.36-0.21,0.78-0.25,1.27-0.13l0.08,0.02l0.46-1.82l-0.1-0.02
		c-1.01-0.25-1.87-0.14-2.58,0.34c-0.71,0.48-1.2,1.25-1.46,2.29C54.19,173.18,55.17,174.68,57.72,175.31z"/>
        <path class="st5" d="M60.87,163.55l2.15,0.72c2.49,0.83,4.12,0.11,4.88-2.16c0.35-1.04,0.35-1.95,0.01-2.73
		c-0.34-0.78-1.01-1.34-2.02-1.67l-0.1-0.03l-0.59,1.75l0.11,0.04c0.47,0.16,0.8,0.42,0.98,0.77c0.18,0.36,0.19,0.79,0.02,1.3
		c-0.19,0.57-0.5,0.93-0.94,1.09c-0.43,0.15-1.03,0.1-1.79-0.15l-2.03-0.68c-0.81-0.27-1.34-0.59-1.61-0.97
		c-0.27-0.38-0.31-0.85-0.12-1.42c0.17-0.51,0.44-0.85,0.81-1.04c0.37-0.18,0.8-0.19,1.28-0.03l0.08,0.03l0.6-1.78l-0.09-0.03
		c-0.99-0.33-1.86-0.28-2.6,0.14c-0.75,0.43-1.29,1.15-1.63,2.18C57.51,161.16,58.37,162.72,60.87,163.55z"/>
        <polygon class="st5" points="70.05,155.73 66.16,154.19 67.37,151.13 71.26,152.68 71.96,150.93 62.76,147.28 62.07,149.03
		65.85,150.53 64.64,153.58 60.86,152.08 60.17,153.83 69.36,157.47 	"/>
        <polygon class="st5" points="75.2,143.79 73.71,143.11 71.87,147.11 69.57,146.05 71.14,142.63 69.65,141.95 68.08,145.37
		65.85,144.34 67.69,140.34 66.2,139.66 63.58,145.37 72.58,149.5 	"/>
        <path class="st5" d="M77.31,139.67c0.51-0.98,0.65-1.9,0.4-2.77c-0.25-0.86-0.99-1.62-2.22-2.26l-1.79-0.94
		c-1.24-0.65-2.27-0.83-3.11-0.55c-0.84,0.28-1.51,0.91-2.02,1.88l-1.61,3.09l8.77,4.58L77.31,139.67z M69.27,137.21l0.74-1.41
		c0.27-0.51,0.63-0.8,1.09-0.87c0.46-0.07,1.07,0.09,1.81,0.48l1.69,0.88c0.71,0.37,1.17,0.77,1.37,1.19
		c0.2,0.42,0.17,0.88-0.09,1.38l-0.74,1.41L69.27,137.21z"/>
        <path class="st5" d="M81.38,132.38c0.57-0.95,0.75-1.87,0.55-2.74c-0.2-0.87-0.9-1.67-2.1-2.38l-1.74-1.03
		c-1.2-0.71-2.23-0.95-3.08-0.72c-0.85,0.23-1.56,0.83-2.12,1.77l-1.78,3l8.51,5.06L81.38,132.38z M73.49,129.49l0.81-1.37
		c0.29-0.49,0.67-0.76,1.14-0.81c0.47-0.04,1.06,0.15,1.78,0.58l1.64,0.98c0.69,0.41,1.12,0.83,1.3,1.27
		c0.18,0.43,0.12,0.89-0.17,1.38l-0.81,1.37L73.49,129.49z"/>
        <path class="st5" d="M84.43,127.44l-1.26-1.57l1.89-2.83l1.93,0.57l1.11-1.66l-10.19-2.57l-0.85,1.28l6.27,8.42L84.43,127.44z
		 M79.65,121.48l3.83,1.11l-1.33,1.99L79.65,121.48z"/>
        <path class="st5" d="M89.7,119.83l-3.21-2.41l0.85-1.12l4.34,0.91l1.3-1.73l-4.73-0.87c0.17-0.58,0.17-1.12-0.01-1.63
		c-0.18-0.51-0.53-0.96-1.05-1.35c-0.73-0.55-1.47-0.75-2.24-0.61c-0.77,0.14-1.44,0.59-2.02,1.37l-2.26,3l7.9,5.95L89.7,119.83z
		 M85.24,116.48l-2.14-1.61l1.07-1.42c0.26-0.34,0.56-0.54,0.9-0.6c0.34-0.05,0.67,0.04,0.99,0.28c0.35,0.26,0.55,0.56,0.59,0.9
		c0.04,0.34-0.07,0.68-0.34,1.03L85.24,116.48z"/>
        <path class="st5" d="M91.09,108.16l1.7,1.5c1.98,1.74,3.76,1.7,5.34-0.1c0.73-0.83,1.08-1.66,1.07-2.51
		c-0.01-0.85-0.41-1.63-1.21-2.33l-0.08-0.07l-1.22,1.39l0.09,0.08c0.37,0.33,0.58,0.69,0.6,1.09c0.03,0.4-0.13,0.8-0.49,1.21
		c-0.4,0.45-0.83,0.66-1.29,0.64c-0.46-0.03-0.99-0.31-1.59-0.84l-1.6-1.41c-0.64-0.56-1.01-1.07-1.11-1.52
		c-0.1-0.45,0.05-0.9,0.45-1.35c0.35-0.4,0.74-0.62,1.15-0.64s0.81,0.13,1.19,0.47l0.06,0.06l1.24-1.41l-0.08-0.07
		c-0.78-0.69-1.6-0.98-2.46-0.88s-1.64,0.56-2.35,1.37C88.92,104.65,89.11,106.42,91.09,108.16z"/>
        <path class="st5" d="M98.54,103.18c1.88,1.84,3.64,1.92,5.29,0.23c0.78-0.79,1.17-1.64,1.19-2.54c0.02-0.9-0.47-1.84-1.47-2.81
		l-1.62-1.59c-1-0.98-1.94-1.45-2.83-1.43c-0.89,0.03-1.72,0.43-2.49,1.21c-1.68,1.71-1.58,3.49,0.3,5.33L98.54,103.18z M97.8,97.41
		c0.4-0.41,0.83-0.58,1.3-0.51c0.46,0.07,1,0.39,1.6,0.98l1.53,1.5c0.57,0.55,0.88,1.06,0.95,1.52c0.07,0.46-0.1,0.89-0.5,1.3
		c-0.42,0.43-0.85,0.61-1.3,0.55c-0.44-0.06-0.95-0.37-1.53-0.94l-1.52-1.5c-0.61-0.6-0.96-1.13-1.03-1.58
		C97.21,98.29,97.38,97.85,97.8,97.41z"/>

        <rect x="103.68" y="90.59" transform="matrix(0.7272 -0.6864 0.6864 0.7272 -37.0383 97.8784)" class="st5" width="1.88" height="9.9"/>
        <polygon class="st5" points="111.32,96.1 107.27,91.43 114.07,93.71 115.49,92.48 109,85.01 107.58,86.24 111.65,90.92
		104.83,88.63 103.42,89.86 109.9,97.33 	"/>
        <path class="st5" d="M127.63,78.78c1.39,2.23,3.1,2.72,5.14,1.46c0.93-0.58,1.52-1.28,1.76-2.09c0.24-0.82,0.07-1.68-0.48-2.58
		l-0.05-0.08l-1.57,0.97l0.06,0.1c0.26,0.42,0.35,0.83,0.26,1.22c-0.09,0.39-0.36,0.73-0.81,1.01c-0.51,0.32-0.98,0.4-1.41,0.24
		c-0.43-0.16-0.86-0.58-1.28-1.26l-1.13-1.82c-0.45-0.72-0.66-1.31-0.62-1.78c0.04-0.46,0.31-0.85,0.82-1.17
		c0.46-0.28,0.88-0.38,1.29-0.28c0.4,0.1,0.74,0.36,1.01,0.79l0.04,0.07l1.6-0.99l-0.05-0.08c-0.55-0.88-1.25-1.4-2.09-1.55
		c-0.85-0.15-1.73,0.06-2.65,0.63c-2.06,1.27-2.39,3.03-1,5.26L127.63,78.78z"/>
        <path class="st5" d="M138.53,76.7l-1.81-3.29l1.59-0.88c0.88-0.48,1.44-1.1,1.68-1.87c0.24-0.76,0.14-1.54-0.3-2.34
		c-0.46-0.85-1.08-1.37-1.86-1.58c-0.77-0.21-1.6-0.07-2.48,0.41l-3.24,1.78l4.76,8.67L138.53,76.7z M134.56,69.47l1.52-0.84
		c0.4-0.22,0.78-0.28,1.12-0.18c0.34,0.1,0.63,0.36,0.86,0.78c0.21,0.38,0.26,0.74,0.15,1.08c-0.11,0.33-0.36,0.61-0.76,0.83
		l-1.52,0.83L134.56,69.47z"/>
        <path class="st5" d="M142,70.47c1.14,2.37,2.79,3.03,4.96,1.99c0.99-0.48,1.65-1.11,1.97-1.9c0.32-0.79,0.25-1.66-0.21-2.61
		l-0.04-0.09l-1.67,0.8l0.05,0.1c0.22,0.45,0.26,0.86,0.13,1.24c-0.13,0.38-0.44,0.69-0.92,0.92c-0.54,0.26-1.02,0.29-1.43,0.08
		c-0.41-0.21-0.79-0.67-1.14-1.39l-0.93-1.92c-0.37-0.77-0.51-1.38-0.43-1.83c0.08-0.45,0.4-0.81,0.94-1.07
		c0.48-0.23,0.92-0.28,1.31-0.14c0.39,0.14,0.7,0.44,0.92,0.9l0.04,0.08l1.69-0.82l-0.04-0.09c-0.45-0.94-1.09-1.53-1.92-1.77
		c-0.83-0.24-1.73-0.12-2.7,0.35c-2.18,1.05-2.7,2.76-1.56,5.13L142,70.47z"/>
        <path class="st5" d="M152.89,65.42c0.96,2.45,2.56,3.24,4.79,2.36c1.02-0.4,1.73-0.98,2.11-1.74c0.38-0.76,0.38-1.63-0.01-2.62
		l-0.04-0.09l-1.72,0.67l0.04,0.11c0.18,0.46,0.19,0.88,0.03,1.25c-0.16,0.37-0.49,0.65-0.98,0.85c-0.56,0.22-1.04,0.21-1.43-0.02
		c-0.4-0.24-0.74-0.73-1.03-1.47l-0.78-1.99c-0.31-0.79-0.41-1.41-0.29-1.86c0.12-0.45,0.46-0.78,1.02-1
		c0.5-0.2,0.94-0.21,1.32-0.04c0.38,0.17,0.66,0.49,0.85,0.96l0.03,0.08l1.75-0.69l-0.04-0.09c-0.38-0.97-0.97-1.61-1.78-1.91
		c-0.81-0.3-1.71-0.25-2.72,0.14c-2.25,0.88-2.9,2.55-1.94,5L152.89,65.42z"/>
        <polygon class="st5" points="163.96,65.34 162.65,61.36 165.77,60.33 167.08,64.31 168.87,63.72 165.77,54.33 163.99,54.92
		165.26,58.78 162.14,59.81 160.87,55.94 159.08,56.53 162.18,65.93 	"/>
        <polygon class="st5" points="176.44,61.64 176.01,60.06 171.76,61.21 171.1,58.77 174.72,57.78 174.29,56.2 170.67,57.19
		170.02,54.82 174.27,53.67 173.84,52.09 167.78,53.74 170.38,63.28 	"/>
        <path class="st5" d="M180.97,60.62c1.08-0.23,1.88-0.72,2.38-1.46c0.5-0.74,0.61-1.79,0.32-3.16l-0.43-1.98
		c-0.3-1.36-0.82-2.28-1.57-2.74c-0.75-0.46-1.66-0.58-2.74-0.35l-3.41,0.74l2.09,9.67L180.97,60.62z M179.27,52.53
		c0.56-0.12,1.02-0.03,1.37,0.28c0.35,0.31,0.61,0.88,0.79,1.7l0.4,1.86c0.17,0.79,0.16,1.39-0.04,1.81
		c-0.2,0.43-0.57,0.7-1.12,0.82l-1.56,0.34l-1.4-6.48L179.27,52.53z"/>
        <path class="st5" d="M189.16,59.08c1.1-0.18,1.92-0.62,2.46-1.33c0.54-0.71,0.71-1.76,0.49-3.14l-0.32-2
		c-0.22-1.38-0.69-2.32-1.42-2.82c-0.73-0.5-1.63-0.67-2.72-0.5l-3.44,0.55l1.56,9.78L189.16,59.08z M187.9,50.91
		c0.57-0.09,1.02,0.03,1.35,0.36c0.33,0.33,0.57,0.91,0.7,1.74l0.3,1.88c0.13,0.79,0.08,1.4-0.14,1.81
		c-0.22,0.41-0.61,0.67-1.17,0.75l-1.57,0.25l-1.05-6.55L187.9,50.91z"/>
        <path class="st5" d="M195.31,56.28l3.38-0.36l0.8,1.85l1.98-0.21l-4.55-9.47l-1.53,0.16l-2.45,10.21l1.97-0.21L195.31,56.28z
		 M196.43,50.77l1.6,3.65l-2.38,0.25L196.43,50.77z"/>
        <path class="st5" d="M204.1,57.42l-0.2-4.01l1.4-0.07l2.08,3.91l2.16-0.11l-2.36-4.19c0.55-0.24,0.97-0.59,1.25-1.05
		c0.28-0.46,0.4-1.02,0.37-1.67c-0.05-0.91-0.37-1.61-0.97-2.11c-0.6-0.5-1.38-0.73-2.35-0.68l-3.75,0.19l0.5,9.88L204.1,57.42z
		 M205.46,49.09c0.43-0.02,0.77,0.08,1.03,0.31c0.26,0.23,0.4,0.54,0.42,0.94c0.02,0.44-0.08,0.78-0.31,1.03
		c-0.23,0.25-0.57,0.38-1.01,0.4l-1.78,0.09l-0.14-2.68L205.46,49.09z"/>
        <path class="st5" d="M217.39,57.32c1.1,0.03,1.97-0.23,2.62-0.79c0.65-0.55,0.98-1.36,1.01-2.42l0-0.1l-1.85-0.05l0,0.11
		c-0.01,0.5-0.16,0.88-0.45,1.17c-0.29,0.28-0.7,0.41-1.24,0.4c-0.6-0.02-1.04-0.21-1.31-0.58c-0.27-0.37-0.4-0.96-0.38-1.76
		l0.05-2.13c0.02-0.85,0.17-1.46,0.46-1.82c0.28-0.37,0.72-0.54,1.33-0.53c0.54,0.01,0.95,0.17,1.23,0.48
		c0.28,0.3,0.42,0.71,0.41,1.21l0,0.09l1.88,0.05l0-0.1c0.03-1.04-0.27-1.86-0.9-2.45c-0.63-0.59-1.48-0.9-2.56-0.92
		c-2.42-0.06-3.66,1.22-3.73,3.85l-0.06,2.26C213.82,55.91,214.99,57.25,217.39,57.32z"/>
        <path class="st5" d="M225.77,57.76c1.11,0.07,2.01-0.17,2.7-0.75c0.69-0.57,1.09-1.55,1.18-2.95l0.15-2.26
		c0.09-1.39-0.16-2.42-0.76-3.08c-0.6-0.66-1.45-1.02-2.54-1.1c-2.4-0.16-3.68,1.07-3.86,3.69l-0.15,2.26
		C222.33,56.21,223.42,57.6,225.77,57.76z M224.39,53.69l0.14-2.13c0.06-0.86,0.23-1.46,0.52-1.81c0.29-0.35,0.74-0.5,1.34-0.46
		c0.57,0.04,0.98,0.25,1.24,0.65c0.25,0.39,0.35,1.01,0.29,1.85l-0.14,2.13c-0.05,0.79-0.23,1.36-0.53,1.71
		c-0.3,0.35-0.74,0.5-1.31,0.47c-0.6-0.04-1.02-0.25-1.27-0.63C224.43,55.09,224.34,54.5,224.39,53.69z"/>

        <rect x="227.38" y="52.39" transform="matrix(0.1175 -0.9931 0.9931 0.1175 152.0687 277.7723)" class="st5" width="9.89" height="1.88"/>
        <polygon class="st5" points="237.18,52.72 239.8,59.39 241.66,59.69 243.22,49.92 241.37,49.62 240.39,55.74 237.77,49.05
		235.92,48.75 234.35,58.52 236.21,58.82 	"/>
        <path class="st5" d="M262.12,65.11c1.04,0.35,1.95,0.35,2.73,0.01c0.78-0.34,1.33-1.01,1.67-2.02l0.03-0.1l-1.76-0.58l-0.04,0.11
		c-0.16,0.47-0.41,0.8-0.77,0.98c-0.36,0.18-0.79,0.19-1.3,0.02c-0.57-0.19-0.93-0.5-1.09-0.93c-0.15-0.43-0.1-1.03,0.15-1.79
		l0.67-2.03c0.27-0.81,0.59-1.34,0.97-1.61c0.38-0.27,0.85-0.31,1.42-0.12c0.51,0.17,0.85,0.44,1.04,0.81
		c0.18,0.37,0.2,0.8,0.04,1.28l-0.03,0.08l1.78,0.59l0.03-0.1c0.33-0.99,0.28-1.86-0.15-2.6c-0.43-0.75-1.15-1.29-2.18-1.63
		c-2.29-0.76-3.86,0.11-4.68,2.6l-0.71,2.15C259.12,62.73,259.84,64.35,262.12,65.11z"/>
        <path class="st5" d="M268.51,67.26l1.37-3.5l1.7,0.66c0.93,0.37,1.77,0.4,2.51,0.1c0.74-0.3,1.27-0.88,1.61-1.73
		c0.35-0.9,0.36-1.71,0.02-2.44c-0.34-0.73-0.97-1.27-1.91-1.64l-3.44-1.35l-3.61,9.21L268.51,67.26z M271.52,59.58l1.61,0.63
		c0.43,0.17,0.71,0.42,0.86,0.74c0.14,0.33,0.13,0.71-0.05,1.16c-0.16,0.41-0.4,0.68-0.73,0.81c-0.33,0.13-0.7,0.11-1.12-0.05
		l-1.62-0.63L271.52,59.58z"/>
        <path class="st5" d="M277.19,71.02c1,0.46,1.91,0.55,2.72,0.3c0.81-0.26,1.43-0.87,1.87-1.83l0.04-0.09l-1.68-0.77l-0.05,0.1
		c-0.21,0.45-0.5,0.75-0.87,0.9c-0.38,0.14-0.81,0.11-1.29-0.12c-0.55-0.25-0.88-0.6-0.98-1.04c-0.11-0.45,0.01-1.04,0.34-1.77
		l0.88-1.95c0.35-0.77,0.73-1.27,1.13-1.5c0.4-0.23,0.88-0.21,1.43,0.03c0.49,0.22,0.8,0.53,0.95,0.92c0.14,0.39,0.11,0.82-0.1,1.28
		l-0.04,0.08l1.71,0.78l0.04-0.09c0.43-0.95,0.47-1.82,0.13-2.6c-0.35-0.79-1.01-1.4-1.99-1.85c-2.2-1-3.85-0.3-4.94,2.09
		l-0.94,2.06C274.46,68.33,275.01,70.03,277.19,71.02z"/>
        <path class="st5" d="M287.63,76.26c0.96,0.53,1.86,0.7,2.69,0.51c0.83-0.19,1.5-0.75,2.01-1.69l0.05-0.09l-1.62-0.89l-0.06,0.1
		c-0.24,0.43-0.55,0.71-0.94,0.83c-0.39,0.11-0.81,0.04-1.28-0.22c-0.53-0.29-0.83-0.66-0.9-1.12c-0.07-0.45,0.09-1.03,0.47-1.74
		l1.03-1.87c0.41-0.74,0.83-1.21,1.24-1.41c0.42-0.19,0.89-0.15,1.42,0.14c0.47,0.26,0.76,0.59,0.87,0.99
		c0.11,0.4,0.05,0.82-0.2,1.27l-0.04,0.08l1.65,0.91l0.05-0.09c0.5-0.91,0.61-1.78,0.33-2.59c-0.28-0.81-0.9-1.48-1.85-2
		c-2.12-1.17-3.81-0.6-5.08,1.7l-1.09,1.99C285.11,73.37,285.53,75.1,287.63,76.26z"/>
        <polygon class="st5" points="293.52,79.53 295.74,75.98 298.52,77.72 296.3,81.27 297.9,82.26 303.14,73.87 301.54,72.87
		299.39,76.33 296.6,74.59 298.76,71.13 297.16,70.14 291.92,78.54 	"/>
        <polygon class="st5" points="304.36,86.75 305.29,85.41 301.68,82.89 303.14,80.81 306.22,82.96 307.16,81.62 304.08,79.47
		305.48,77.46 309.09,79.98 310.03,78.64 304.88,75.05 299.21,83.15 	"/>
        <path class="st5" d="M308.04,89.59c0.87,0.68,1.76,0.98,2.65,0.89c0.89-0.09,1.77-0.68,2.63-1.78l1.24-1.59
		c0.86-1.1,1.23-2.09,1.1-2.96c-0.12-0.87-0.62-1.65-1.49-2.33l-2.75-2.14l-6.09,7.8L308.04,89.59z M311.91,82.13l1.25,0.98
		c0.45,0.35,0.67,0.76,0.66,1.23c-0.01,0.47-0.28,1.03-0.8,1.7l-1.17,1.5c-0.49,0.63-0.97,1.01-1.42,1.13
		c-0.45,0.12-0.9,0.01-1.34-0.34l-1.25-0.98L311.91,82.13z"/>
        <path class="st5" d="M314.46,94.89c0.83,0.73,1.7,1.07,2.6,1.04c0.9-0.04,1.8-0.58,2.72-1.63l1.33-1.52
		c0.92-1.05,1.34-2.02,1.26-2.9c-0.08-0.88-0.53-1.68-1.36-2.4l-2.63-2.29l-6.5,7.45L314.46,94.89z M318.73,87.64l1.2,1.05
		c0.43,0.38,0.63,0.8,0.59,1.26c-0.04,0.47-0.34,1.02-0.89,1.65l-1.25,1.44c-0.53,0.61-1.02,0.96-1.48,1.05
		c-0.46,0.1-0.9-0.04-1.32-0.41l-1.2-1.05L318.73,87.64z"/>
        <path class="st5" d="M318.78,98.76l1.77-0.96l2.44,2.36l-0.9,1.8l1.43,1.39l4.34-9.56l-1.1-1.07l-9.4,4.67L318.78,98.76z
		 M325.49,95.12l-1.78,3.57l-1.72-1.66L325.49,95.12z"/>
        <path class="st5" d="M325.33,105.31l2.95-2.73l0.95,1.03l-1.67,4.1l1.47,1.59l1.7-4.5c0.54,0.27,1.07,0.36,1.61,0.28
		c0.53-0.08,1.04-0.35,1.52-0.79c0.67-0.62,1-1.32,1-2.1c0-0.78-0.33-1.53-0.98-2.24l-2.55-2.76l-7.27,6.72L325.33,105.31z
		 M331.39,99.7l1.21,1.31c0.29,0.32,0.43,0.65,0.43,0.99c-0.01,0.34-0.16,0.65-0.45,0.92c-0.32,0.3-0.65,0.44-0.99,0.42
		c-0.34-0.02-0.66-0.19-0.95-0.51l-1.21-1.31L331.39,99.7z"/>
        <path class="st5" d="M333.93,115.43c0.68,0.86,1.44,1.36,2.28,1.5c0.84,0.14,1.67-0.12,2.5-0.78l0.08-0.06l-1.15-1.45l-0.09,0.07
		c-0.39,0.31-0.78,0.44-1.18,0.4c-0.4-0.04-0.77-0.27-1.1-0.69c-0.37-0.47-0.51-0.93-0.4-1.38c0.11-0.45,0.48-0.92,1.11-1.42
		l1.67-1.33c0.67-0.53,1.23-0.8,1.69-0.82c0.46-0.02,0.88,0.21,1.25,0.68c0.33,0.42,0.47,0.84,0.42,1.25
		c-0.05,0.41-0.27,0.78-0.67,1.09l-0.07,0.05l1.17,1.47l0.08-0.06c0.82-0.65,1.25-1.4,1.3-2.26c0.05-0.86-0.26-1.71-0.93-2.56
		c-1.5-1.89-3.28-2.02-5.34-0.39l-1.77,1.41C332.72,111.8,332.44,113.55,333.93,115.43z"/>
        <path class="st5" d="M340.14,116.99c-2.14,1.52-2.53,3.24-1.17,5.17c0.64,0.91,1.4,1.45,2.28,1.62c0.88,0.18,1.89-0.14,3.03-0.94
		l1.85-1.31c1.14-0.81,1.77-1.65,1.91-2.53c0.13-0.88-0.12-1.77-0.75-2.66c-1.39-1.96-3.15-2.18-5.3-0.66L340.14,116.99z
		 M344.74,116.54c0.45,0.01,0.86,0.25,1.21,0.75c0.33,0.47,0.42,0.93,0.28,1.37c-0.15,0.45-0.56,0.91-1.25,1.4l-1.74,1.24
		c-0.65,0.46-1.2,0.68-1.66,0.67c-0.46-0.01-0.86-0.25-1.19-0.72c-0.35-0.49-0.45-0.95-0.32-1.37c0.14-0.42,0.54-0.87,1.2-1.34
		l1.74-1.24C343.71,116.79,344.29,116.54,344.74,116.54z"/>

        <rect x="341.63" y="123.4" transform="matrix(0.8376 -0.5463 0.5463 0.8376 -11.6384 209.5346)" class="st5" width="9.9" height="1.88"/>
        <polygon class="st5" points="344.84,130.85 350.15,127.68 346.71,133.98 347.67,135.59 356.17,130.53 355.21,128.91 349.89,132.08
		353.35,125.78 352.38,124.17 343.88,129.23 	"/>
        <path class="st5" d="M358.35,156.88c0.76,0.38,1.63,0.37,2.62-0.01l0.09-0.04l-0.68-1.72l-0.11,0.04
		c-0.46,0.18-0.88,0.19-1.25,0.04c-0.37-0.16-0.65-0.49-0.85-0.98c-0.22-0.56-0.21-1.04,0.02-1.43c0.24-0.4,0.73-0.74,1.47-1.03
		l1.99-0.78c0.79-0.31,1.41-0.41,1.86-0.29c0.45,0.12,0.78,0.46,1,1.02c0.2,0.5,0.21,0.94,0.04,1.32c-0.17,0.38-0.49,0.66-0.96,0.85
		l-0.08,0.03l0.69,1.75l0.09-0.04c0.97-0.38,1.6-0.97,1.9-1.78c0.3-0.81,0.25-1.71-0.14-2.72c-0.89-2.25-2.55-2.89-5-1.93
		l-2.11,0.83c-2.45,0.96-3.23,2.56-2.35,4.79C357.01,155.8,357.59,156.5,358.35,156.88z"/>
        <path class="st5" d="M359.04,161.04l3.56-1.19l0.58,1.73c0.32,0.95,0.83,1.62,1.53,1.99c0.7,0.38,1.49,0.42,2.36,0.13
		c0.92-0.3,1.55-0.82,1.89-1.54c0.34-0.72,0.36-1.56,0.04-2.51l-1.17-3.51l-9.39,3.13L359.04,161.04z M366.88,158.43l0.55,1.65
		c0.15,0.44,0.14,0.81-0.02,1.13c-0.16,0.32-0.47,0.56-0.92,0.71c-0.42,0.14-0.78,0.12-1.09-0.05c-0.31-0.17-0.53-0.47-0.68-0.89
		l-0.55-1.65L366.88,158.43z"/>
        <path class="st5" d="M366.75,165.01l-2.18,0.6c-2.53,0.7-3.48,2.21-2.84,4.52c0.29,1.06,0.8,1.82,1.51,2.28
		c0.72,0.46,1.59,0.54,2.61,0.26l0.1-0.03l-0.49-1.78l-0.11,0.03c-0.48,0.13-0.89,0.1-1.25-0.1c-0.35-0.2-0.6-0.55-0.74-1.07
		c-0.16-0.58-0.1-1.06,0.17-1.42c0.27-0.37,0.8-0.66,1.57-0.87l2.06-0.57c0.82-0.23,1.45-0.26,1.88-0.09
		c0.43,0.16,0.73,0.54,0.89,1.12c0.14,0.52,0.11,0.96-0.1,1.31c-0.21,0.36-0.56,0.61-1.05,0.74l-0.08,0.02l0.5,1.81l0.1-0.03
		c1-0.28,1.7-0.8,2.08-1.57c0.38-0.77,0.43-1.68,0.14-2.72C370.87,165.12,369.28,164.31,366.75,165.01z"/>
        <path class="st5" d="M369.79,176.77l-2.22,0.43c-2.58,0.5-3.64,1.93-3.18,4.28c0.21,1.08,0.65,1.87,1.33,2.38
		c0.68,0.51,1.54,0.67,2.58,0.46l0.1-0.02l-0.35-1.81l-0.11,0.02c-0.49,0.09-0.9,0.03-1.23-0.19c-0.33-0.22-0.55-0.6-0.66-1.12
		c-0.11-0.59-0.02-1.06,0.28-1.41c0.3-0.34,0.85-0.59,1.64-0.75l2.1-0.41c0.83-0.16,1.46-0.15,1.88,0.05
		c0.42,0.2,0.68,0.59,0.8,1.18c0.1,0.52,0.04,0.96-0.2,1.3c-0.24,0.34-0.6,0.56-1.1,0.66l-0.08,0.02l0.36,1.84l0.1-0.02
		c1.02-0.2,1.75-0.67,2.19-1.4c0.44-0.74,0.56-1.64,0.35-2.7C373.89,177.21,372.37,176.27,369.79,176.77z"/>
        <polygon class="st5" points="365.65,188.13 369.79,187.55 370.24,190.81 366.09,191.38 366.35,193.24 376.15,191.89 375.89,190.03
		371.86,190.58 371.41,187.33 375.45,186.77 375.19,184.91 365.39,186.26 	"/>
        <polygon class="st5" points="367.04,201.04 368.67,200.9 368.29,196.51 370.82,196.3 371.14,200.04 372.77,199.9 372.45,196.16
		374.9,195.95 375.27,200.34 376.9,200.2 376.37,193.94 366.51,194.78 	"/>
        <path class="st5" d="M367.22,205.7c0.04,1.11,0.37,1.98,1.01,2.61c0.64,0.63,1.65,0.92,3.05,0.88l2.02-0.06
		c1.4-0.05,2.39-0.4,2.98-1.05c0.59-0.66,0.87-1.53,0.83-2.63l-0.11-3.48l-9.89,0.32L367.22,205.7z M375.43,203.88l0.05,1.59
		c0.02,0.57-0.16,1-0.52,1.29c-0.37,0.29-0.97,0.45-1.82,0.47l-1.91,0.06c-0.8,0.03-1.4-0.1-1.78-0.37
		c-0.38-0.27-0.58-0.69-0.6-1.25l-0.05-1.59L375.43,203.88z"/>
        <path class="st5" d="M367.34,210.6l-0.07,3.43c-0.02,1.11,0.27,1.99,0.87,2.66c0.6,0.66,1.6,1.01,3,1.04l2.02,0.04
		c1.4,0.03,2.41-0.27,3.03-0.89c0.62-0.62,0.95-1.48,0.97-2.58l0.07-3.49L367.34,210.6z M375.53,214.24c-0.01,0.57-0.21,1-0.59,1.26
		c-0.38,0.27-1,0.39-1.84,0.38l-1.91-0.04c-0.8-0.02-1.39-0.17-1.76-0.46c-0.37-0.29-0.54-0.72-0.53-1.28l0.03-1.59l6.62,0.14
		L375.53,214.24z"/>
        <path class="st5" d="M367.03,219.85l1.88,0.73l-0.23,3.39l-1.96,0.47l-0.13,1.99l10.11-2.86l0.1-1.53l-9.64-4.17L367.03,219.85z
		 M370.44,221.19l3.71,1.44l-3.87,0.95L370.44,221.19z"/>
        <path class="st5" d="M366.23,229.04l3.98,0.51l-0.18,1.39l-4.22,1.35l-0.28,2.15l4.54-1.59c0.14,0.59,0.41,1.06,0.82,1.41
		c0.41,0.36,0.93,0.58,1.58,0.66c0.9,0.12,1.65-0.08,2.25-0.58c0.6-0.5,0.96-1.23,1.08-2.19l0.48-3.73l-9.82-1.26L366.23,229.04z
		 M371.76,229.75l2.66,0.34l-0.23,1.76c-0.06,0.43-0.22,0.75-0.48,0.96c-0.27,0.22-0.6,0.3-1,0.25c-0.44-0.06-0.75-0.22-0.96-0.49
		c-0.2-0.27-0.27-0.63-0.22-1.06L371.76,229.75z"/>
        <path class="st5" d="M370.79,239.88l-2.22-0.46c-2.58-0.53-4.11,0.38-4.59,2.73c-0.22,1.08-0.12,1.98,0.31,2.71
		c0.43,0.73,1.16,1.21,2.2,1.42l0.1,0.02l0.37-1.81l-0.11-0.02c-0.49-0.1-0.84-0.32-1.07-0.65c-0.22-0.33-0.28-0.77-0.17-1.29
		c0.12-0.59,0.39-0.99,0.8-1.19c0.41-0.2,1.01-0.22,1.8-0.06l2.09,0.43c0.83,0.17,1.41,0.43,1.72,0.77c0.31,0.34,0.4,0.81,0.28,1.4
		c-0.11,0.53-0.34,0.9-0.69,1.13c-0.35,0.23-0.77,0.29-1.27,0.18l-0.08-0.02l-0.38,1.84l0.1,0.02c1.02,0.21,1.88,0.06,2.57-0.45
		c0.69-0.51,1.15-1.3,1.36-2.35C374.4,241.86,373.36,240.41,370.79,239.88z"/>
        <path class="st5" d="M368.96,248.47l-2.19-0.58c-2.54-0.67-4.11,0.13-4.72,2.42c-0.28,1.07-0.21,2,0.22,2.79
		c0.43,0.79,1.32,1.36,2.67,1.72l2.19,0.58c1.35,0.36,2.4,0.3,3.16-0.16c0.76-0.46,1.28-1.22,1.56-2.29
		C372.47,250.64,371.5,249.14,368.96,248.47z M370.26,252.54c-0.15,0.56-0.44,0.92-0.87,1.09c-0.44,0.17-1.06,0.15-1.87-0.07
		l-2.06-0.55c-0.77-0.2-1.29-0.48-1.58-0.85c-0.29-0.36-0.35-0.82-0.21-1.37c0.15-0.58,0.44-0.96,0.85-1.12
		c0.42-0.17,1.02-0.15,1.8,0.06l2.06,0.55c0.83,0.22,1.39,0.5,1.68,0.86C370.35,251.49,370.41,251.95,370.26,252.54z"/>

        <rect x="364.31" y="252.62" transform="matrix(0.2931 -0.9561 0.9561 0.2931 11.9489 531.2861)" class="st5" width="1.88" height="9.89"/>
        <polygon class="st5" points="359.15,260.39 364.98,262.45 357.94,263.83 357.31,265.6 366.64,268.89 367.27,267.12 361.43,265.06
		368.48,263.68 369.1,261.91 359.77,258.62 	"/>
        <path class="st5" d="M355.46,284.57l-1.98-1.09c-2.3-1.26-4.03-0.84-5.19,1.26c-0.53,0.96-0.7,1.86-0.5,2.68
		c0.2,0.83,0.76,1.49,1.69,2.01l0.09,0.05l0.89-1.62l-0.1-0.06c-0.44-0.24-0.71-0.55-0.83-0.94c-0.12-0.39-0.05-0.81,0.21-1.28
		c0.29-0.53,0.66-0.83,1.11-0.9c0.45-0.07,1.03,0.08,1.74,0.47l1.87,1.03c0.75,0.41,1.21,0.82,1.41,1.24
		c0.2,0.42,0.15,0.89-0.14,1.42c-0.26,0.47-0.59,0.76-0.99,0.87c-0.4,0.11-0.82,0.05-1.27-0.19l-0.07-0.04l-0.9,1.65l0.09,0.05
		c0.91,0.5,1.77,0.61,2.58,0.32c0.81-0.28,1.48-0.9,2-1.85C358.34,287.53,357.77,285.83,355.46,284.57z"/>
        <path class="st5" d="M345.02,290.64l3.19,1.98l-0.96,1.55c-0.53,0.85-0.71,1.67-0.55,2.45c0.16,0.78,0.63,1.41,1.41,1.9
		c0.82,0.51,1.62,0.66,2.39,0.46c0.78-0.2,1.43-0.73,1.96-1.58l1.95-3.15l-8.41-5.21L345.02,290.64z M348.7,294.96l0.91-1.47
		l2.42,1.5l-0.91,1.47c-0.24,0.39-0.54,0.63-0.89,0.71c-0.35,0.08-0.73,0-1.13-0.25c-0.37-0.23-0.59-0.52-0.66-0.87
		C348.38,295.71,348.47,295.34,348.7,294.96z"/>
        <path class="st5" d="M346.91,299.09l-1.86-1.29c-2.16-1.5-3.92-1.27-5.29,0.7c-0.63,0.9-0.89,1.78-0.78,2.62
		c0.11,0.84,0.6,1.57,1.47,2.17l0.08,0.06l1.06-1.52l-0.09-0.07c-0.41-0.28-0.65-0.62-0.72-1.02c-0.07-0.4,0.04-0.81,0.35-1.25
		c0.34-0.5,0.75-0.75,1.21-0.78c0.46-0.02,1.02,0.19,1.68,0.65l1.75,1.22c0.7,0.49,1.12,0.95,1.27,1.38c0.15,0.44,0.05,0.9-0.29,1.4
		c-0.31,0.44-0.66,0.69-1.07,0.76c-0.41,0.07-0.82-0.04-1.24-0.33l-0.07-0.05l-1.07,1.54l0.08,0.06c0.85,0.59,1.7,0.79,2.54,0.6
		c0.84-0.2,1.56-0.74,2.18-1.63C349.46,302.33,349.07,300.59,346.91,299.09z"/>
        <path class="st5" d="M339.82,308.96l-1.76-1.43c-2.04-1.66-3.81-1.56-5.33,0.3c-0.69,0.85-1.02,1.7-0.98,2.55
		c0.04,0.85,0.47,1.61,1.3,2.28l0.08,0.06l1.17-1.43l-0.09-0.07c-0.39-0.31-0.6-0.67-0.64-1.07c-0.04-0.4,0.1-0.81,0.44-1.22
		c0.38-0.47,0.8-0.69,1.26-0.68c0.46,0.01,1,0.27,1.62,0.78l1.66,1.35c0.66,0.54,1.05,1.03,1.16,1.48c0.12,0.45-0.01,0.9-0.39,1.37
		c-0.34,0.42-0.71,0.64-1.13,0.68c-0.41,0.04-0.82-0.1-1.21-0.42l-0.07-0.05l-1.19,1.46l0.08,0.06c0.81,0.66,1.64,0.92,2.49,0.79
		c0.85-0.13,1.61-0.62,2.3-1.46C342.11,312.38,341.85,310.62,339.82,308.96z"/>
        <polygon class="st5" points="328.45,313.04 331.54,315.86 329.33,318.29 326.24,315.47 324.97,316.86 332.29,323.52 333.55,322.13
		330.54,319.39 332.75,316.96 335.76,319.7 337.03,318.31 329.71,311.65 	"/>
        <polygon class="st5" points="319.42,322.39 320.57,323.56 323.7,320.46 325.48,322.26 322.81,324.91 323.96,326.07 326.63,323.42
		328.36,325.17 325.23,328.26 326.38,329.43 330.84,325.01 323.88,317.98 	"/>
        <path class="st5" d="M315.98,325.51c-0.83,0.74-1.28,1.56-1.35,2.45c-0.07,0.89,0.35,1.86,1.28,2.9l1.35,1.51
		c0.93,1.04,1.83,1.58,2.72,1.61c0.88,0.03,1.73-0.32,2.55-1.05l2.6-2.32l-6.59-7.38L315.98,325.51z M321.45,331.71
		c-0.43,0.38-0.87,0.52-1.33,0.43c-0.46-0.1-0.97-0.46-1.53-1.09l-1.27-1.42c-0.54-0.6-0.82-1.13-0.86-1.6
		c-0.04-0.47,0.15-0.89,0.57-1.26l1.19-1.06l4.41,4.94L321.45,331.71z"/>
        <path class="st5" d="M309.62,330.89c-0.87,0.69-1.36,1.48-1.48,2.37c-0.12,0.89,0.25,1.88,1.12,2.97l1.26,1.58
		c0.87,1.09,1.75,1.67,2.63,1.76c0.88,0.08,1.75-0.22,2.61-0.91l2.72-2.18l-6.18-7.73L309.62,330.89z M314.75,337.37
		c-0.45,0.36-0.9,0.48-1.35,0.36c-0.45-0.12-0.94-0.51-1.47-1.17l-1.19-1.49c-0.5-0.63-0.76-1.17-0.77-1.64
		c-0.01-0.47,0.2-0.88,0.64-1.23l1.24-1l4.14,5.18L314.75,337.37z"/>
        <path class="st5" d="M305.02,334.45l0.63,1.91l-2.76,1.98l-1.61-1.21l-1.62,1.16l8.63,5.98l1.25-0.89l-2.91-10.08L305.02,334.45z
		 M304.21,339.32l1.94-1.4l1.25,3.78L304.21,339.32z"/>
        <path class="st5" d="M297.43,339.72l2.16,3.39l-1.19,0.75l-3.74-2.38l-1.83,1.17l4.13,2.47c-0.36,0.48-0.55,0.99-0.56,1.53
		c-0.01,0.54,0.16,1.09,0.51,1.63c0.49,0.77,1.12,1.22,1.89,1.36c0.77,0.14,1.56-0.05,2.38-0.57l3.17-2.02l-5.32-8.34L297.43,339.72
		z M301.87,346.69l-1.5,0.96c-0.36,0.23-0.71,0.31-1.05,0.25c-0.34-0.07-0.61-0.27-0.83-0.61c-0.24-0.37-0.31-0.72-0.24-1.05
		c0.08-0.33,0.31-0.61,0.68-0.85l1.5-0.96L301.87,346.69z"/>
        <path class="st5" d="M290.97,348.16c-1.24-2.32-2.92-2.91-5.04-1.78c-0.97,0.52-1.6,1.18-1.89,1.98c-0.29,0.8-0.18,1.67,0.32,2.6
		l0.05,0.09l1.63-0.87l-0.05-0.1c-0.23-0.44-0.3-0.85-0.18-1.24c0.11-0.39,0.41-0.71,0.88-0.96c0.53-0.28,1.01-0.33,1.43-0.15
		s0.82,0.63,1.2,1.34l1.01,1.88c0.4,0.75,0.57,1.35,0.51,1.81c-0.06,0.46-0.36,0.83-0.89,1.11c-0.47,0.25-0.91,0.32-1.3,0.19
		c-0.4-0.12-0.72-0.41-0.96-0.86l-0.04-0.08l-1.66,0.89l0.05,0.09c0.49,0.92,1.16,1.48,1.99,1.68c0.84,0.2,1.73,0.05,2.68-0.46
		c2.13-1.14,2.58-2.87,1.34-5.19L290.97,348.16z"/>
        <path class="st5" d="M283.28,352.23c-1.11-2.38-2.74-3.08-4.87-2.08c-1.01,0.47-1.67,1.12-2.01,1.96
		c-0.33,0.84-0.21,1.89,0.38,3.15l0.96,2.05c0.59,1.26,1.3,2.04,2.15,2.33c0.84,0.29,1.76,0.2,2.76-0.26
		c2.17-1.01,2.71-2.71,1.6-5.09L283.28,352.23z M282.89,356.83c-0.09,0.45-0.4,0.8-0.95,1.05c-0.52,0.24-0.99,0.25-1.4,0.03
		c-0.41-0.22-0.79-0.72-1.15-1.48l-0.9-1.94c-0.34-0.72-0.45-1.3-0.36-1.75c0.1-0.45,0.4-0.8,0.92-1.04
		c0.55-0.25,1.02-0.28,1.41-0.06c0.39,0.21,0.76,0.69,1.11,1.42l0.9,1.94C282.84,355.77,282.98,356.38,282.89,356.83z"/>

        <rect x="273.97" y="352.29" transform="matrix(0.9221 -0.3869 0.3869 0.9221 -116.8132 134.201)" class="st5" width="1.88" height="9.89"/>
        <polygon class="st5" points="268.83,354.36 270.98,360.16 265.41,355.64 263.65,356.29 267.1,365.57 268.87,364.91 266.7,359.1
		272.28,363.64 274.04,362.99 270.59,353.71 	"/>
        <path class="st5" d="M247.46,364.81c-0.5-2.58-1.93-3.64-4.29-3.18c-1.08,0.21-1.87,0.66-2.38,1.33c-0.51,0.68-0.66,1.54-0.46,2.58
		l0.02,0.1l1.81-0.36l-0.02-0.11c-0.1-0.49-0.03-0.9,0.19-1.24c0.22-0.34,0.59-0.55,1.12-0.66c0.59-0.12,1.06-0.02,1.41,0.28
		c0.35,0.3,0.6,0.85,0.75,1.64l0.41,2.09c0.16,0.84,0.15,1.46-0.05,1.88c-0.2,0.42-0.59,0.68-1.18,0.8c-0.53,0.1-0.96,0.04-1.3-0.2
		c-0.34-0.23-0.56-0.6-0.66-1.1l-0.02-0.08l-1.84,0.36l0.02,0.1c0.2,1.02,0.67,1.75,1.41,2.19c0.74,0.44,1.64,0.56,2.7,0.35
		c2.37-0.46,3.31-1.99,2.8-4.57L247.46,364.81z"/>
        <path class="st5" d="M236.56,362.9l0.53,3.72l-1.8,0.26c-0.99,0.14-1.74,0.52-2.23,1.15c-0.5,0.63-0.68,1.39-0.55,2.3
		c0.14,0.96,0.53,1.67,1.18,2.13c0.65,0.47,1.47,0.63,2.46,0.49l3.66-0.52l-1.38-9.79L236.56,362.9z M236,371.32
		c-0.45,0.06-0.82-0.01-1.11-0.23c-0.29-0.22-0.46-0.56-0.53-1.03c-0.06-0.43,0.02-0.79,0.24-1.06c0.22-0.27,0.56-0.44,1-0.5
		l1.72-0.24l0.4,2.82L236,371.32z"/>
        <path class="st5" d="M231.08,367.51c-0.23-2.62-1.54-3.82-3.93-3.61c-1.09,0.1-1.93,0.45-2.51,1.08c-0.58,0.62-0.82,1.46-0.73,2.52
		l0.01,0.1l1.84-0.16l-0.01-0.11c-0.04-0.5,0.06-0.9,0.32-1.21c0.26-0.31,0.65-0.49,1.18-0.54c0.6-0.05,1.06,0.09,1.37,0.43
		c0.31,0.34,0.5,0.91,0.57,1.71l0.19,2.13c0.07,0.85-0.01,1.47-0.25,1.86c-0.24,0.4-0.66,0.62-1.26,0.67
		c-0.53,0.05-0.96-0.07-1.27-0.33c-0.32-0.27-0.5-0.66-0.54-1.16l-0.01-0.09l-1.87,0.16l0.01,0.1c0.09,1.04,0.48,1.81,1.17,2.33
		c0.69,0.52,1.57,0.73,2.65,0.63c2.41-0.21,3.5-1.62,3.27-4.24L231.08,367.51z"/>
        <path class="st5" d="M215.46,364.47c-1.1,0.01-1.96,0.31-2.59,0.88c-0.63,0.58-0.93,1.39-0.92,2.46l0,0.1l1.85-0.02l0-0.12
		c-0.01-0.5,0.13-0.89,0.41-1.18c0.28-0.29,0.69-0.44,1.22-0.44c0.6-0.01,1.05,0.17,1.33,0.53c0.29,0.36,0.43,0.94,0.44,1.74
		l0.02,2.14c0.01,0.85-0.12,1.46-0.39,1.84c-0.27,0.38-0.7,0.57-1.31,0.57c-0.54,0-0.95-0.14-1.25-0.43
		c-0.3-0.29-0.45-0.69-0.45-1.2l0-0.09l-1.88,0.02l0,0.1c0.01,1.04,0.34,1.85,0.99,2.41c0.65,0.57,1.51,0.84,2.59,0.83
		c2.42-0.03,3.61-1.35,3.59-3.98l-0.02-2.27C219.07,365.74,217.86,364.44,215.46,364.47z"/>
        <polygon class="st5" points="208.55,368.71 205.27,368.57 205.44,364.38 203.57,364.3 203.15,374.19 205.02,374.27 205.2,370.2
		208.48,370.34 208.3,374.41 210.18,374.49 210.6,364.6 208.72,364.52 	"/>
        <polygon class="st5" points="195.62,365.2 200,365.64 199.75,368.16 196.01,367.79 195.85,369.42 199.59,369.79 199.35,372.23
		194.97,371.8 194.81,373.42 201.06,374.04 202.04,364.19 195.78,363.57 	"/>
        <path class="st5" d="M188.41,363.48c-0.73,0.52-1.2,1.46-1.4,2.84l-0.29,2c-0.2,1.38-0.03,2.42,0.51,3.12
		c0.54,0.7,1.35,1.13,2.44,1.29l3.45,0.51l1.44-9.79l-3.39-0.5C190.06,362.78,189.14,362.96,188.41,363.48z M191.49,371.34
		l-1.58-0.23c-0.57-0.08-0.96-0.33-1.18-0.75c-0.22-0.42-0.27-1.04-0.15-1.87l0.28-1.89c0.12-0.79,0.34-1.36,0.67-1.68
		c0.33-0.33,0.78-0.45,1.34-0.37l1.57,0.23L191.49,371.34z"/>
        <path class="st5" d="M180.18,361.9c-0.76,0.48-1.28,1.4-1.55,2.76l-0.4,1.98c-0.28,1.37-0.16,2.41,0.34,3.14
		c0.5,0.73,1.29,1.2,2.37,1.42l3.41,0.69l1.96-9.69l-3.36-0.68C181.87,361.3,180.94,361.43,180.18,361.9z M182.83,369.92l-1.56-0.32
		c-0.56-0.11-0.94-0.38-1.14-0.81c-0.2-0.43-0.21-1.05-0.05-1.87l0.38-1.87c0.16-0.79,0.41-1.33,0.76-1.64
		c0.35-0.31,0.8-0.41,1.35-0.3l1.56,0.31L182.83,369.92z"/>
        <path class="st5" d="M177.27,360.28l-1.06,1.71l-3.29-0.85l-0.1-2.01l-1.93-0.5l0.95,10.46l1.49,0.38l5.87-8.7L177.27,360.28z
		 M173.23,366.76l-0.22-3.98l2.32,0.6L173.23,366.76z"/>
        <path class="st5" d="M167.15,361.65l-1.34-0.43l-0.57-4.39l-2.06-0.66l0.74,4.75c-0.6,0.03-1.11,0.21-1.54,0.55
		c-0.42,0.34-0.73,0.82-0.93,1.44c-0.28,0.86-0.22,1.64,0.17,2.32c0.39,0.68,1.04,1.17,1.96,1.46l3.58,1.14l3-9.43l-1.79-0.57
		L167.15,361.65z M165.86,365.7l-1.69-0.54c-0.41-0.13-0.7-0.35-0.86-0.65c-0.16-0.3-0.19-0.65-0.06-1.03
		c0.13-0.42,0.35-0.7,0.65-0.85c0.3-0.15,0.67-0.16,1.08-0.02l1.69,0.54L165.86,365.7z"/>
        <path class="st5" d="M155.87,353.26c-1.02-0.41-1.93-0.47-2.73-0.18c-0.8,0.29-1.4,0.93-1.79,1.91l-0.04,0.09l1.71,0.69l0.04-0.11
		c0.19-0.46,0.46-0.77,0.83-0.93c0.37-0.16,0.8-0.14,1.3,0.06c0.56,0.23,0.9,0.56,1.02,1c0.12,0.44,0.04,1.04-0.26,1.78l-0.8,1.98
		c-0.32,0.79-0.67,1.3-1.07,1.55c-0.39,0.24-0.87,0.25-1.43,0.03c-0.5-0.2-0.82-0.49-0.98-0.88c-0.16-0.38-0.14-0.81,0.05-1.28
		l0.03-0.08l-1.74-0.7l-0.04,0.09c-0.39,0.96-0.4,1.83-0.02,2.6c0.38,0.77,1.07,1.36,2.07,1.77c2.24,0.91,3.85,0.14,4.84-2.29
		l0.85-2.1C158.71,355.83,158.09,354.16,155.87,353.26z"/>
        <path class="st5" d="M148.19,349.9c-1-0.47-1.93-0.57-2.79-0.29c-0.86,0.28-1.58,1.05-2.18,2.31l-0.97,2.05
		c-0.59,1.26-0.73,2.31-0.42,3.14c0.32,0.83,0.97,1.48,1.96,1.95c2.17,1.02,3.82,0.35,4.94-2.03l0.97-2.05
		C150.83,352.6,150.32,350.9,148.19,349.9z M147.98,354.19l-0.91,1.93c-0.37,0.78-0.75,1.28-1.15,1.5c-0.4,0.22-0.87,0.2-1.42-0.06
		c-0.52-0.24-0.82-0.6-0.91-1.06c-0.09-0.46,0.05-1.07,0.4-1.83l0.91-1.93c0.34-0.72,0.71-1.18,1.12-1.4
		c0.41-0.21,0.87-0.2,1.39,0.04c0.54,0.26,0.86,0.61,0.95,1.04C148.46,352.87,148.33,353.46,147.98,354.19z"/>

        <rect x="135.54" y="350.8" transform="matrix(0.4614 -0.8872 0.8872 0.4614 -236.3933 314.093)" class="st5" width="9.9" height="1.88"/>
        <polygon class="st5" points="138.81,345.23 135.74,350.59 135.65,343.42 134.02,342.48 129.1,351.06 130.73,352 133.81,346.63
		133.89,353.81 135.52,354.74 140.44,346.16 	"/>
        <path class="st5" d="M116.81,330.17c-0.85-0.69-1.7-1.02-2.55-0.97c-0.85,0.04-1.61,0.48-2.28,1.3l-0.06,0.08l1.44,1.17l0.07-0.09
		c0.31-0.39,0.67-0.6,1.07-0.65c0.4-0.04,0.81,0.1,1.22,0.44c0.47,0.38,0.7,0.8,0.69,1.26c-0.01,0.46-0.27,1-0.77,1.62l-1.35,1.66
		c-0.54,0.66-1.03,1.05-1.47,1.17c-0.45,0.12-0.9-0.01-1.37-0.39c-0.42-0.34-0.64-0.71-0.68-1.13c-0.04-0.42,0.1-0.82,0.42-1.21
		l0.05-0.07l-1.46-1.19l-0.06,0.08c-0.66,0.81-0.92,1.64-0.78,2.49c0.14,0.85,0.62,1.61,1.46,2.29c1.88,1.53,3.64,1.27,5.3-0.77
		l1.43-1.76C118.77,333.46,118.67,331.68,116.81,330.17z"/>
        <path class="st5" d="M111.58,325.88l-2.52,2.79l-1.35-1.22c-0.74-0.67-1.52-1-2.31-0.98c-0.8,0.02-1.5,0.37-2.12,1.05
		c-0.65,0.72-0.94,1.47-0.88,2.27c0.06,0.8,0.46,1.54,1.2,2.21l2.75,2.48l6.63-7.34L111.58,325.88z M106.04,332.01l-1.29-1.16
		c-0.34-0.31-0.52-0.64-0.54-1c-0.02-0.36,0.13-0.71,0.45-1.07c0.29-0.33,0.62-0.49,0.97-0.5s0.69,0.14,1.03,0.45l1.29,1.16
		L106.04,332.01z"/>
        <path class="st5" d="M104.53,324.64c1.86-1.86,1.95-3.63,0.26-5.33c-0.78-0.78-1.59-1.19-2.44-1.24c-0.85-0.05-1.65,0.31-2.4,1.05
		l-0.07,0.07l1.31,1.31l0.08-0.08c0.35-0.35,0.73-0.53,1.13-0.53c0.4,0,0.79,0.18,1.17,0.57c0.42,0.43,0.61,0.87,0.55,1.32
		c-0.06,0.46-0.37,0.97-0.94,1.54l-1.51,1.51c-0.6,0.6-1.13,0.94-1.59,1c-0.46,0.07-0.9-0.11-1.32-0.54
		c-0.38-0.38-0.56-0.78-0.56-1.19c0-0.42,0.19-0.8,0.54-1.16l0.06-0.06l-1.33-1.33l-0.07,0.07c-0.74,0.74-1.08,1.53-1.04,2.39
		c0.05,0.86,0.45,1.67,1.21,2.44c1.71,1.71,3.49,1.64,5.35-0.21L104.53,324.64z"/>
        <path class="st5" d="M96.86,310.71c-0.71-0.83-1.49-1.31-2.34-1.42c-0.84-0.11-1.67,0.18-2.47,0.87l-0.08,0.07l1.2,1.41l0.09-0.08
		c0.38-0.32,0.77-0.47,1.17-0.44c0.4,0.03,0.78,0.25,1.12,0.65c0.39,0.46,0.54,0.91,0.45,1.36c-0.09,0.45-0.44,0.94-1.05,1.46
		l-1.62,1.39c-0.65,0.55-1.2,0.85-1.66,0.88c-0.46,0.04-0.89-0.17-1.28-0.63c-0.35-0.41-0.5-0.82-0.47-1.23
		c0.04-0.41,0.25-0.79,0.63-1.12l0.07-0.05l-1.22-1.43l-0.08,0.07c-0.79,0.68-1.2,1.45-1.22,2.31c-0.02,0.86,0.32,1.7,1.02,2.52
		c1.57,1.84,3.36,1.9,5.35,0.19l1.72-1.47C98.2,314.3,98.42,312.54,96.86,310.71z"/>
        <polygon class="st5" points="92.5,305.59 89.18,308.13 87.19,305.53 90.51,302.98 89.37,301.49 81.51,307.5 82.66,308.99
		85.89,306.52 87.88,309.13 84.65,311.6 85.79,313.09 93.65,307.08 	"/>
        <polygon class="st5" points="84.89,295.02 83.55,295.94 86.04,299.57 83.94,301.01 81.82,297.91 80.47,298.84 82.6,301.93
		80.58,303.32 78.09,299.69 76.74,300.62 80.29,305.79 88.45,300.2 	"/>
        <path class="st5" d="M82.43,291.07c-0.58-0.95-1.3-1.54-2.17-1.77c-0.87-0.23-1.89,0.02-3.08,0.75l-1.72,1.06
		c-1.19,0.73-1.88,1.53-2.07,2.39c-0.19,0.86,0,1.76,0.58,2.7l1.82,2.97l8.44-5.17L82.43,291.07z M76.2,296.71l-0.83-1.36
		c-0.3-0.49-0.36-0.95-0.18-1.38c0.18-0.43,0.62-0.87,1.34-1.31l1.63-1c0.69-0.42,1.26-0.61,1.73-0.56
		c0.47,0.05,0.85,0.31,1.14,0.79l0.83,1.36L76.2,296.71z"/>
        <path class="st5" d="M78.28,283.86c-0.53-0.98-1.22-1.6-2.07-1.88c-0.85-0.28-1.89-0.09-3.12,0.58l-1.78,0.96
		c-1.23,0.66-1.96,1.42-2.2,2.27c-0.24,0.85-0.09,1.76,0.43,2.73l1.66,3.07l8.71-4.71L78.28,283.86z M71.75,289.15l-0.76-1.4
		c-0.27-0.5-0.31-0.97-0.11-1.39c0.2-0.42,0.67-0.83,1.41-1.24l1.68-0.91c0.71-0.38,1.29-0.54,1.75-0.47
		c0.46,0.07,0.83,0.36,1.1,0.85l0.76,1.4L71.75,289.15z"/>
        <path class="st5" d="M75.6,278.71l-1.99,0.28l-1.46-3.07l1.48-1.37l-0.85-1.8l-7.43,7.43l0.66,1.39l10.45-1.07L75.6,278.71z
		 M68.04,279.76l2.92-2.72l1.03,2.16L68.04,279.76z"/>
        <path class="st5" d="M71.78,270.3l-3.72,1.52l-0.53-1.3l3.01-3.26l-0.82-2.01l-3.17,3.62c-0.41-0.44-0.88-0.72-1.41-0.83
		c-0.53-0.11-1.1-0.04-1.7,0.21c-0.84,0.34-1.4,0.88-1.67,1.61c-0.27,0.73-0.23,1.54,0.14,2.44l1.42,3.48l9.16-3.74L71.78,270.3z
		 M64.13,273.42l-0.67-1.65c-0.16-0.4-0.18-0.76-0.05-1.08c0.13-0.32,0.38-0.56,0.75-0.71c0.41-0.17,0.77-0.18,1.07-0.04
		c0.31,0.14,0.55,0.41,0.71,0.82l0.67,1.65L64.13,273.42z"/>
        <path class="st5" d="M64.63,262.43c2.5-0.8,3.39-2.35,2.65-4.63c-0.34-1.05-0.87-1.78-1.61-2.21c-0.73-0.43-1.61-0.48-2.62-0.15
		l-0.1,0.03l0.57,1.76l0.11-0.03c0.47-0.15,0.89-0.14,1.25,0.04c0.36,0.18,0.62,0.53,0.79,1.04c0.18,0.57,0.15,1.05-0.11,1.43
		c-0.26,0.38-0.77,0.69-1.54,0.94l-2.03,0.65c-0.81,0.26-1.43,0.32-1.87,0.17c-0.44-0.15-0.75-0.5-0.93-1.08
		c-0.16-0.51-0.15-0.95,0.04-1.32c0.19-0.37,0.53-0.63,1.01-0.79l0.08-0.03l-0.58-1.79l-0.1,0.03c-0.99,0.32-1.66,0.87-2.01,1.66
		c-0.35,0.79-0.36,1.69-0.03,2.72c0.74,2.3,2.36,3.05,4.87,2.25L64.63,262.43z"/>
        <path class="st5" d="M59.82,254.71l2.19-0.57c2.54-0.66,3.52-2.14,2.92-4.43c-0.28-1.07-0.8-1.85-1.56-2.33
		c-0.76-0.48-1.82-0.54-3.17-0.19l-2.19,0.57c-1.35,0.35-2.24,0.92-2.68,1.69c-0.44,0.78-0.51,1.7-0.24,2.76
		C55.7,254.55,57.27,255.38,59.82,254.71z M56.69,251.81c-0.14-0.55-0.07-1.01,0.23-1.38c0.29-0.36,0.85-0.65,1.66-0.86l2.07-0.54
		c0.77-0.2,1.37-0.21,1.79-0.04c0.43,0.18,0.71,0.54,0.86,1.1c0.15,0.58,0.09,1.05-0.19,1.4c-0.28,0.35-0.81,0.63-1.6,0.83
		l-2.07,0.54c-0.83,0.22-1.46,0.24-1.89,0.08C57.13,252.76,56.84,252.39,56.69,251.81z"/>

        <rect x="53.65" y="244.07" transform="matrix(0.9767 -0.2146 0.2146 0.9767 -51.2056 18.2793)" class="st5" width="9.89" height="1.88"/>
        <polygon class="st5" points="62.51,239.52 56.42,240.6 61.88,235.93 61.55,234.08 51.8,235.81 52.13,237.66 58.23,236.58
		52.76,241.25 53.09,243.1 62.84,241.37 	"/>
</g>
</svg>
